<?xml version="1.0" encoding="UTF-8"?><svg id="Layer_1" xmlns="http://www.w3.org/2000/svg" width="150" height="196" viewBox="0 0 150 196"><defs><style>.cls-1{stroke-linecap:round;stroke-linejoin:round;}.cls-1,.cls-2{stroke:#000;}.cls-1,.cls-2,.cls-3{fill:none;}.cls-4{fill:#5b2ac2;}.cls-4,.cls-2,.cls-3{stroke-miterlimit:10;}.cls-4,.cls-3{stroke:#fff;}.cls-5,.cls-6,.cls-7,.cls-8,.cls-9,.cls-10,.cls-11,.cls-12,.cls-13,.cls-14{stroke-width:0px;}.cls-6{fill:#9a8063;}.cls-7{fill:#383838;}.cls-8{fill:#2e2e2e;}.cls-9{fill:#1a1a1a;}.cls-10{fill:#d42d55;}.cls-11{fill:#ccada2;}.cls-12{fill:#b52d00;}.cls-13{fill:#00a553;}.cls-14{fill:#fff;}</style></defs><path class="cls-7" d="m92.7,181c.1,1.9.2,4.1,0,7.8-15.2,5.9-33,6.2-48.7,1.5.2-1.7.5-4.4.8-7.3,16.4,3.6,35.8,3.4,47.7-2Z"/><path class="cls-11" d="m43.4,99c-6.4,2.2-14.3-13.6-4.4-10.9,5.4-3.4,8.3-10.4,11.2-16,1.7-1,2.6-1.9,4.6-2.3.8-.1,1.9-.3,2.3-1.2.7-3-3-2.9-4.8-1.8,1.1-2.8,1.2-7.1,2.7-9.4,6-1.2,14,1,18.8,5.2-7.4-3.1-10,5.5-3.7,2.7,1.3-1.1,4,0,4.7-1.7,1.7,1.8,3.6,4.4,4.1,7.2,0,5.2,1.6,3.5,3,9.8,1.7,7.8.6,16-9,24.6-1.1,3.7-.4,11.7-5,13h0c-4.2.8-10.9-3.3-14.4-5.5-.1-1.2-.4-2.3-.7-3.3,0,0,0,0,.1,0h-.1c-2-6.3-7-9.7-9.2-10.4Zm30.5-5.4c2-1.3,2-2.6,1.7-5-4.1,2.1-9.4,2.6-13.8,2,2.4,4.4,7.8,5.9,12.1,3Zm1.3-17.2c1.6-.5-.8-6.8-2.4-6.1-1.6.5.8,6.8,2.4,6.1Zm-18.6,4.3c1.9-.6-.8-7.6-2.6-6.7-1.9.6.8,7.5,2.6,6.7Z"/><path class="cls-10" d="m77.3,145c2.9,8.5.1,16.8-4.7,24-14.1-11.8-7.9-31-9.3-46.9.9-1.4,2.3-3.1,4.3-4l4.6,3.8c1.6,6.8,3.5,16.2,5.1,23Z"/><path class="cls-14" d="m75.6,88.5c1.6,5.6-6.2,7.7-10,5.9-1.3-.8-3-2.6-3.8-3.9,4.4.6,9.7,0,13.8-2Z"/><path class="cls-5" d="m75.2,72.8c1.6,3.9-1,4.9-2.5,1-1.6-3.9,1-4.9,2.5-1Z"/><path class="cls-9" d="m74.5,63.6s0,0,0,0c-.4-.4-.7-.7-1-1,.5.2,1,.4,1,.9Z"/><path class="cls-9" d="m74.5,63.7c-.7,1.7-3.4.6-4.7,1.7-2.7,2-5.1-1-2.2-2.8,2.1-.9,5.4-.8,6.9,1.1Z"/><path class="cls-6" d="m67.6,118.2h0s-.1,0-.2,0c0,0,0,0,.1,0Z"/><path class="cls-14" d="m100.9,146.3c-4.1-16.9-2.1-29.8-19.9-32.8.3-.3.6-.4,1-.5-1.6-2.3-7.4-4.3-9.9-4.9-.8,4-.5,8.7-4.4,10.1l4.6,3.8c2.6,15.5,11.6,32.9.3,47.1-14.1-11.8-7.9-31-9.3-46.9.9-1.4,2.2-2.9,4.2-4-4.1.6-10.8-3.3-14.2-5.5-.1-1.2-.4-2.3-.7-3.3-2.1,1.2-4.4,2.9-5.5,5.2l-10,4.1c-10.6,2.4-10.3,29.2-13,37,4.5,4.3,10.8,6,16.7,4.5,1.3-1.4,1.8-6,2.2-11.8,3,9,2.8,24.9,2.1,34.7,16.4,3.6,35.8,3.4,47.7-2-.6-5.9-1.5-16.5-1.8-23.8,0-.9,2.4-3,2.4-3,1.1-3.2,3.7-7.1,7.6-7.5v-.3Z"/><path class="cls-9" d="m55.4,66.1c1.2.2,2.3,2.1,1.1,3.1-2.3.9-4.3,1.3-6.4,2.9.7-1.7,1.4-3.5,2-5.3,1.1-.5,2.2-.9,3.4-.7Z"/><path class="cls-5" d="m56.7,76.7c1.7,4.3-1.2,5.5-2.9,1.2-1.7-4.3,1.2-5.5,2.9-1.2Z"/><path class="cls-8" d="m83.7,85.9c-4.2-17.1-4.4-35.1-20.5-38.4-16.4-3.1-35.3,4.8-37.1,23.8-.8,5.6.2,12.6,3.3,18.8,2.6,5.3-3,30.7,23.1,19.3-3.5-9.4-7.7-9.7-13.6-11.3-4.2-2-7.8-12.7,0-10,9.5-6.9,12.5-20.1,15.8-30.6,6.4-1.2,15.4,1.3,19.8,6.3,1.7,1.8,3.6,4.4,4.1,7.2,0,5.2,1.6,3.5,3,9.8,1.7,7.8.6,16-9,24.6,12-4.5,17.4-5.7,11.1-19.4Z"/><path class="cls-6" d="m52.7,109.3s0,0-.1,0t0,0h.1Z"/><path class="cls-11" d="m127.9,143.4c-4.3-1.5-9.5.2-12.9,3-2.4-1-5.8.5-6.8,2.8h-.2c-.1-.7-.2-1.1-.6-1.6-5.7-2.9-12.7.6-14.1,6.6-2.9,2-2.4,4.3-2.1,7.5,2.4,5.7,10,2.3,13.9.2.7.9,1.7,1.6,2.8,1.6-1.7,5.5,7.3,5.2,5.2-.4h0s0,0,0,0c1-.3,1.8-1,2.3-1.9,2.1,1.7,5.8,1.8,6.2-1.5,1.1,0,2.6.6,3.5-.3,1.5-2.4,4-8.7-1.5-6.3h0c-2.3.5-4.8-1.1-3.2-3.4,1.8-2.6,6.5-3.6,7.5-6.4Z"/><path class="cls-11" d="m42.3,174.3c-1.5.5-1.6,3.9-3.6,2.8.6-1.3,1.3-3.4,0-4.5-.5-1.1-.9-2.3-1.7-3.2,0-4.7.7-7.7,1.1-8.7-4.9,0-8.8-.9-12.9-3.8-.5,2.5-1.7,6.3-.9,8.8-6.8,2.5-12.7,11-.4,6,2.6,2.4-1,12.5,6.2,8.1,1,2.3,4.2,1.9,5.8.5,5.4,4.7,12.6-5,6.4-6Z"/><path class="cls-2" d="m71.5,112.7c-1.5,10.5-13,3.3-18.2,0-.2-6.3-7.1-13.4-9.9-13.8"/><path class="cls-2" d="m78.6,70.8c0,5.2,1.6,3.5,3,9.8,1.7,7.8.6,16-9,24.6-.2.9-1.2,6.5-1.2,7.5"/><path class="cls-1" d="m74.5,63.7c0,.8-1.1,1-1.8,1-1.9-.1-3.5,1.6-5.3,1.4-1.9-.5-1-2.7.2-3.4,1.8-.8,6-.9,6.9,1.1Z"/><path class="cls-1" d="m50.1,72.1c1.7-1,2.6-1.9,4.6-2.3.8-.1,1.9-.3,2.3-1.2.7-3-3-2.9-4.8-1.8"/><path class="cls-1" d="m72.8,73.8c1.5,4,4,3,2.5-1-1.5-4-4.1-3-2.5,1Z"/><path class="cls-1" d="m53.8,77.9c1.7,4.4,4.7,3.2,2.9-1.2-1.7-4.4-4.7-3.2-2.9,1.2Z"/><path class="cls-1" d="m61.8,90.5c4.4.6,9.7,0,13.8-2,1.6,5.6-6.2,7.7-10,5.9-1.3-.8-3-2.6-3.8-3.9Z"/><path class="cls-2" d="m43.4,99c.9-.2,1.5-.8,1.3-1.9"/><path class="cls-1" d="m38.9,88.1c-9.9-2.7-2,13.1,4.4,10.9"/><path class="cls-1" d="m78.6,70.8c-2.3-9.4-11.8-13.2-20.6-13.8-5.8-1.4-4,6.4-5.9,9.8-2.8,7.5-6.4,16.5-13.1,21.2"/><path class="cls-1" d="m52.7,109.3c-26.1,11.5-20.8-13.8-23.3-19.2-3.1-6.2-4.1-13.2-3.3-18.8,1.9-19,20.8-26.9,37.1-23.8,10,2.7,15.7,9.9,17.8,26.5"/><path class="cls-2" d="m67.2,85.2c.6-2.8,5.5-4.9,6.3-1.6"/><path class="cls-1" d="m47,114.6l-10,4.1c-10.6,2.4-10.3,29.2-13,37,3.9,3.9,8.9,5.1,14.2,5,6.9-.4,3.9-17,5.8-23.6"/><path class="cls-1" d="m81,113.6c17.8,3,15.7,15.9,19.9,32.8"/><path class="cls-1" d="m52.7,109.3c-3,1.7-6.5,4.5-6.3,8.4,3.7-.8,11.9,8.1,15.2,9.8-.4-1.5,2.6-8.3,6.1-9.4,2.1,1.7,6.3,5.2,8.4,6.9,1.3-2.4,2.4-10.8,6-12-1.6-2.3-7.3-4.3-9.9-4.9"/><path class="cls-1" d="m63.3,122.2c1.4,15.8-4.8,35.1,9.3,46.9,11.2-14.1,2.2-31.5-.3-47.1"/><path class="cls-1" d="m81,73.9c1.6,18.5,15.4,23.6-8.4,31.3"/><path class="cls-1" d="m94.9,164.8c3.4,1,7.2-1.6,10.1-2.8"/><path class="cls-1" d="m108,149.1c-.1-.6-.2-1-.6-1.6-6.9-3.6-14.4,2.3-14.8,9.4-.3,1.8-1,6.7,1.9,7.7"/><path class="cls-1" d="m37,169.6c0-4.5.7-8,1.1-8.9"/><path class="cls-1" d="m25.2,156.9c-.4,2.3-1.8,6.1-.9,8.4"/><path class="cls-1" d="m94.9,164.8c-2.2-.7-3-1-3.8-3"/><path class="cls-1" d="m92.8,188.8c-15.2,5.9-33,6.2-48.7,1.5,1.6-12.1,2.4-30.5-1.3-42"/><path class="cls-1" d="m90.9,157.2c.3,11.7,2.2,20.7,1.9,31.6"/><path class="cls-1" d="m88.3,129.9c1.5,9.5,2.2,19.1,2.6,27.3"/><path class="cls-1" d="m90.9,157.2c0-.9,2.4-3,2.4-3"/><path class="cls-1" d="m108,150.2c-5.3,1.2-6,13,0,13.4"/><line class="cls-1" x1="38.7" y1="177.1" x2="38.8" y2="177.1"/><path class="cls-1" d="m38.7,172.7c-1.1-4.3-4.2-5.2-8-6.2-6.8-5.8-23.5,11.9-6.9,5.3,2.5,2.1-.5,7.5,2.9,9,3.6.7,6.4-4,7.7-6.8.4-4.5-5.2-1.3-6.5.7"/><path class="cls-1" d="m30,179.7c2,4.2,7.5.4,8.7-2.6,2.3-4-1.4-6.8-4.4-3"/><path class="cls-1" d="m35.6,180.1c5.4,5.2,13-4.7,6.7-5.8-1.5.5-1.6,3.8-3.6,2.8"/><path class="cls-1" d="m45,183c16.5,3.6,35.9,3.4,47.9-2.1"/><path class="cls-2" d="m54.6,57.2c-4.3-4.2-10.5-6.4-16.5-5.6"/><line class="cls-1" x1="123.6" y1="153.1" x2="123.6" y2="153.2"/><line class="cls-1" x1="121.5" y1="159.8" x2="121.6" y2="159.8"/><line class="cls-1" x1="121.1" y1="155.7" x2="121.2" y2="155.7"/><line class="cls-1" x1="113.1" y1="163.2" x2="113.1" y2="163.2"/><path class="cls-1" d="m108.1,151.6c-1-3.7,3.7-6.5,6.9-5.3,3.4-2.8,8.7-4.4,12.9-3-1,2.8-5.8,3.7-7.5,6.4-1.5,2.3,1,3.9,3.2,3.4"/><path class="cls-1" d="m115.6,156.4c1.4,2.4,3.1-1.8,4.9-1.2,3.3,3.8-.4,10-5.3,6"/><path class="cls-1" d="m121.2,155.7c.8-1.9,4.2-4.4,5.8-2.2.3,2-1.1,4.2-2,6-.9.9-2.4.2-3.5.3"/><path class="cls-1" d="m113.1,163.2c-2.5-10-9,4-2.9,4.2,2.6.5,3.6-1.8,2.9-4.2Z"/><path class="cls-1" d="m113.1,163.2c1-.3,1.9-1.1,2.4-2.1"/><rect class="cls-13" x="109.8" y="75.2" width="20.8" height="20.8" transform="translate(-25.5 61.8) rotate(-26.2)"/><polygon class="cls-12" points="33.7 1 44.4 18.8 26.6 29.6 15.9 11.7 33.7 1"/><polygon class="cls-3" points="15.9 11.7 26.6 29.6 44.4 18.8 33.7 1 15.9 11.7"/><rect class="cls-3" x="109.8" y="75.2" width="20.8" height="20.8" transform="translate(-25.5 61.8) rotate(-26.2)"/><rect class="cls-4" x="28.1" y="148.3" width="20.8" height="20.8" transform="translate(-124.5 168.1) rotate(-79.7)"/></svg>