<?xml version="1.0" encoding="UTF-8"?><svg id="Layer_1" xmlns="http://www.w3.org/2000/svg" width="150" height="196" viewBox="0 0 150 196"><defs><style>.cls-1{stroke-linejoin:round;}.cls-1,.cls-2{stroke-linecap:round;}.cls-1,.cls-2,.cls-3{stroke:#000;}.cls-1,.cls-2,.cls-3,.cls-4{fill:none;}.cls-2,.cls-5,.cls-3,.cls-4{stroke-miterlimit:10;}.cls-5,.cls-4{stroke:#fff;}.cls-5,.cls-6{fill:#00a553;}.cls-7,.cls-8,.cls-9,.cls-10,.cls-11,.cls-12,.cls-13,.cls-6{stroke-width:0px;}.cls-8{fill:#fb9395;}.cls-9{fill:#2a2b38;}.cls-10{fill:#5b2ac2;}.cls-11{fill:#d3ac97;}.cls-12{fill:#b3292e;}.cls-13{fill:#b52d00;}</style></defs><path class="cls-11" d="m139.7,142.4c-4.2-1.5-9.4.2-12.9,3-2.4-1-5.6.5-6.7,2.7-7.8-2.7-15.5,1.4-16.1,9.6-.2,1.6-.8,5.6,1,7.1,4.9,2.8,10.5-2.3,15.1-3.7-.3,1.4-.9,3.3,0,4.6,2.7,2,6.3.2,4.9-3.5,1-.3,1.8-1,2.3-1.9,2.1,1.7,5.8,1.8,6.2-1.5,1.1-.1,2.6.6,3.5-.3,1.5-2.4,4-8.7-1.5-6.3h0c-2.2.5-4.8-1.1-3.2-3.4,1.7-2.6,6.5-3.5,7.5-6.3Z"/><path class="cls-8" d="m102.6,162.3c.7,11.4,1.6,19,1.2,30-4.1,1.6-40.8,2.4-48.6,0,3.5-11,2.3-33.1-1.1-44.4-1.4,9.6-3.2,20.2-3.2,23.5,0,0,0,0,0,0-1-4.3-4.2-5.2-7.9-6.1-2-1.4-4.8-1.4-7.1-.5,0,0-.2-.2-.3-.3,2.8-9.2,1.8-43.1,12.8-47.3,0,0,14.5-3.3,14.5-3.3.9,11.2,26.2,12.1,25.1-.4,3.9.5,14.7,2.3,16.5,4.8,3,4.3,5.6,19.8,7.9,28.9,1.1-.2,2.2-.2,3.3,0-6.5-1.2-11.1,4.9-11.6,10.2-.3,1.8-1,6.6,1.9,7.6-2.2-.7-2.5-1-3.4-2.9Z"/><path class="cls-11" d="m55.6,98.3c-5.6,2.7-14.1-15.1-4.2-11.2h.2c11.6,10.7-6.6-15.7-1.2-22,1.6-4,8.8-3.2,20.6-5.4,4.3-.8,8-5.9,11.7-5.3,9.1,2.9,8.6,2.6,10.7,14.3,3.4,12.8,5.2,27.6-7.4,35-.2.1-1.3,7.5-1.2,9.4-1.1,7.8-17,5.5-19.5.3-1.1-6-2.9-10-9.8-15.1Zm32.5-33.5c3.4-2.6-8.4-2-9-.7-.1,1.3,1.6,2.3,2.6,1.4,2-1.1,4.3-.8,6.4-.7Zm-.7,11.1c1.6-.5-.8-6.8-2.4-6.1-1.6.5.8,6.8,2.4,6.1Zm-19.8,6c1.9-.6-.8-7.5-2.6-6.7-1.9.6.8,7.5,2.6,6.7Zm-1.6-12.1c1-7.7-12.9,3.9-5.7,3.4,1.7-1.4,3.4-3,5.7-3.4Z"/><path class="cls-9" d="m68.3,40.5c7.2,2.2,26.5,1.7,26.3,33.7-2.5-10-1-18.5-11.9-19.8-3.7-.7-7.4,4.5-11.7,5.3-11.8,2.2-19,1.3-20.6,5.4-5.4,6.3,12.7,32.7,1.2,21.9h-.2c-7.8-3.1-4,7-.7,9.5-9.7-3.6-16.4-31.1-11.9-37.8,7.9-11.9,17.6-21.8,29.5-18.2Z"/><path class="cls-9" d="m88.8,63.8c-.1,2.2-5.3,0-7.1,1.7-1.1.9-2.8,0-2.6-1.4,2.2-1.3,7.5-1.8,9.7-.3Z"/><path class="cls-12" d="m87.9,113.6c1.1,12.5-24.2,11.6-25.1.4-.2-1.9.2-3.8,1.8-4-.4,6,7.8,8.4,13.4,8.4,5.7-1,7.2-4.1,7.1-8.4,1.8.5,2.6,2,2.8,3.6Z"/><path class="cls-7" d="m87.5,72.3c1.6,3.9-1,4.9-2.5,1-1.6-3.9,1-4.9,2.5-1Z"/><path class="cls-7" d="m67.8,77.9c1.7,4.3-1.2,5.5-2.9,1.1-1.7-4.3,1.2-5.5,2.9-1.1Z"/><path class="cls-9" d="m63.7,67.3c2.2-.6,2.4.4,2.4,2.4-2.3.4-4,1.9-5.7,3.4-5.3.7,1-5.8,3.3-5.8Z"/><path class="cls-11" d="m56.7,175.4c0-1.2-.9-2.6-2.2-2.2-1.5.5-1.6,3.9-3.6,2.8.6-1.3,1.3-3.4,0-4.5-1-4.3-4.2-5.2-7.9-6.1-6.8-5.8-23.4,11.8-6.9,5.2,2.6,2.4-1,12.5,6.2,8.1,1,2.3,4.2,1.9,5.8.5,3.1,2.7,8.9.5,8.6-3.8Z"/><path class="cls-3" d="m91.7,60c2.7,13.4,10.6,34.1-5.6,43.7-.2.2-1.3,7.4-1.2,9.4-1.1,7.8-17,5.5-19.5.3-1.1-6.1-2.8-9.6-9.5-15.1"/><path class="cls-3" d="m50.8,96.5c-9.7-3.6-16.4-31.1-11.9-37.8,7.9-11.9,17.6-21.8,29.5-18.2,7.2,2.2,26.5,1.7,26.3,33.7"/><path class="cls-1" d="m85,73.3c1.5,3.9,4,3,2.5-1-1.5-3.9-4-3-2.5,1Z"/><path class="cls-1" d="m64.9,79.1c1.7,4.3,4.7,3.2,2.9-1.1-1.7-4.3-4.7-3.2-2.9,1.1Z"/><path class="cls-1" d="m51.4,87.1c-7.8-3.2-4,6.9-.7,9.5,1.5,2.6,6.8,2.9,5.7-1.1"/><path class="cls-1" d="m77.8,84.5c1.3-2.5,5.9-3.9,6.8,0"/><path class="cls-3" d="m51.6,87c11.6,10.8-6.6-15.6-1.2-21.9,1.6-4,8.8-3.2,20.6-5.4,4.3-.8,8-5.9,11.7-5.3,4.4.8,7.2,2.4,8.9,5.6"/><path class="cls-3" d="m50.9,171.5c0-4.8,3.6-24.9,4.7-33.7"/><path class="cls-3" d="m62.8,114l-14.5,3.3c-10.9,4.1-10,38.2-12.8,47.3,0,.1.2.2.3.3"/><path class="cls-3" d="m87.9,113.6c3.9.6,14.7,2.3,16.5,4.8,3,4.2,5.5,19.5,7.8,28.6"/><path class="cls-3" d="m106.3,165.3c4.8.9,9.5-2.9,13.8-4.3"/><path class="cls-3" d="m120.5,148.1c-7.9-2.7-15.9,1-16.5,9.5-.3,1.8-1,6.6,1.9,7.6"/><path class="cls-3" d="m106.3,165.3c-2.2-.7-3-1-3.7-3"/><path class="cls-2" d="m103.8,192.3c-4.1,1.6-40.8,2.4-48.6,0,3.5-11,2.3-33.1-1.1-44.4,0,0,0,0,0,0"/><path class="cls-2" d="m99.7,130.6c2.8,22.6,4,40.4,4.1,61.7"/><path class="cls-3" d="m120,150.6c-.9-3.8,3.7-6.4,6.9-5.2,3.4-2.8,8.6-4.4,12.9-3-1,2.8-5.7,3.7-7.5,6.3-1.5,2.3,1,3.9,3.2,3.4"/><path class="cls-3" d="m127.5,155.3c1.4,2.3,3.1-1.8,4.9-1.2,3.2,3.8-.4,10-5.3,5.9"/><path class="cls-3" d="m133.1,154.6c.5-1.1,1.4-2,2.4-2.5h0c5.4-2.4,3,3.9,1.5,6.3-.9.9-2.3.2-3.5.3"/><path class="cls-3" d="m125,162.1c-2.5-10-9,4-2.9,4.2,2.6.5,3.6-1.8,2.9-4.2Z"/><path class="cls-3" d="m125,162.1c1-.3,1.9-1.1,2.4-2"/><path class="cls-3" d="m50.9,171.5c-1-4.3-4.2-5.2-7.9-6.2-6.8-5.8-23.4,11.8-6.9,5.2,2.5,2.1-.5,7.4,2.9,9,3.6.7,6.4-4,7.7-6.8.3-4.5-5.2-1.3-6.5.7"/><path class="cls-3" d="m42.2,178.5c2.9,5.6,11.9-3,8.6-7-1.5-1.1-3.3.3-4.3,1.5"/><path class="cls-3" d="m47.8,179c5.4,5.2,13-4.7,6.7-5.8-1.5.5-1.6,3.8-3.6,2.8"/><path class="cls-3" d="m85.1,109.9c3.9,1.1,3.3,6.7,1.3,9.1-2.7,3.4-10.7,4.6-15.2,2.7-4.3-1.7-8.2-2.5-8.4-7.8-.2-1.9.2-3.8,1.8-4"/><path class="cls-3" d="m71.8,91.4c3.4,2.2,7.7,3,12,0"/><path class="cls-3" d="m66.1,69.7c-2.3.4-4,1.9-5.7,3.4-7.1.5,6.8-11.1,5.7-3.4Z"/><path class="cls-3" d="m80.4,65.9c2.1-.5,4.1-1.7,6.4-1.1.7.2,2.2.2,2-.9-1.1-1.7-13.8-1-8.4,2.1Z"/><path class="cls-3" d="m119.4,149.9c-3.9,2.6-6,10.1-.4,11.8"/><rect class="cls-13" x="117.8" y="34.5" width="23.9" height="23.9" transform="translate(2.1 98.4) rotate(-41.9)"/><rect class="cls-10" x="117.8" y="101.9" width="23.9" height="23.9" transform="translate(-36.9 69) rotate(-26.2)"/><polygon class="cls-6" points="95.8 7.1 91.7 30.6 68.2 26.5 72.3 3 95.8 7.1"/><polygon class="cls-13" points="44.1 25.3 29.6 44.2 10.6 29.7 25.2 10.7 44.1 25.3"/><polygon class="cls-10" points="26.5 78.5 32.5 101.6 9.3 107.6 3.4 84.5 26.5 78.5"/><polygon class="cls-4" points="68.2 26.5 91.7 30.6 95.8 7.1 72.3 3 68.2 26.5"/><rect class="cls-4" x="117.8" y="101.9" width="23.9" height="23.9" transform="translate(-36.9 68.8) rotate(-26.2)"/><polygon class="cls-4" points="32.5 101.6 9.3 107.6 3.4 84.5 26.5 78.5 32.5 101.6"/><polygon class="cls-4" points="29.6 44.2 10.6 29.7 25.2 10.7 44.1 25.3 29.6 44.2"/><rect class="cls-4" x="117.8" y="34.5" width="23.9" height="23.9" transform="translate(2.1 98.3) rotate(-41.8)"/><rect class="cls-5" x="43.1" y="148.3" width="20.8" height="20.8" transform="translate(-112.2 182.8) rotate(-79.7)"/></svg>