<?xml version="1.0" encoding="UTF-8"?><svg id="Layer_1" xmlns="http://www.w3.org/2000/svg" width="548" height="373" viewBox="0 0 548 373"><defs><style>.cls-1,.cls-2,.cls-3,.cls-4,.cls-5{fill:none;}.cls-1,.cls-2,.cls-6{stroke-linejoin:round;}.cls-1,.cls-2,.cls-6,.cls-4,.cls-5{stroke-linecap:round;}.cls-1,.cls-4{stroke:#231f20;}.cls-2,.cls-3,.cls-6,.cls-5{stroke:#000;}.cls-3,.cls-4,.cls-5{stroke-miterlimit:10;}.cls-3,.cls-7{stroke-width:3px;}.cls-6{fill:#fcee21;stroke-width:2px;}.cls-7{fill:#fff;stroke:#414042;}.cls-8,.cls-9,.cls-10,.cls-11,.cls-12,.cls-13,.cls-14,.cls-15,.cls-16,.cls-17,.cls-18,.cls-19,.cls-20,.cls-21{stroke-width:0px;}.cls-9{fill:#5b2ac2;}.cls-10{fill:#9b9898;}.cls-11{fill:#a2c4e7;}.cls-12{fill:#2648ad;}.cls-13{fill:#e0e0e0;}.cls-14{fill:#e0bfa4;}.cls-15{fill:#af3832;}.cls-16{fill:#666363;}.cls-17{fill:#332723;}.cls-18{fill:#00a553;}.cls-19{fill:#a26f56;}.cls-20{fill:#fffefd;}.cls-21{fill:#f4fcfe;}</style></defs><rect class="cls-21" width="548" height="373"/><rect class="cls-7" x="115.6" y="106.5" width="229.6" height="229.6"/><line class="cls-3" x1="254" y1="105.9" x2="254" y2="335.5"/><line class="cls-3" x1="115.6" y1="256.2" x2="345.2" y2="256.2"/><path class="cls-6" d="m507.1,38c-4.6,3.8-9.5,11-14.6,14-4.4-.8-11.4-3.4-16.5-4.9,3.9,8,4.6,10.5,7.1,16.3-3.7,5.2-6,11.9-10.4,16.4,8.6-1.3,20.2-3.4,20.2-3.4,0,0,6.3,7.2,11.6,14.8-.8-3.6,2.8-12.1,1.8-16.4,3.1-1.3,11.1-5.4,17.8-6.3-5.2-3.5-16.1-9.7-16.1-9.7,0,0-.3-13-1-20.9"/><path class="cls-18" d="m169.1,83.7c.5-.4,1.1-.6,1.7-.6s.5,0,.8.1c.3,0,.6.2.9.4l1.2.6c.2,0,.3.2.5.2.1,0,.3,0,.5,0,.6,0,1-.1,1.3-.4.3-.3,1.1-1.3,2.4-3,.8-1.1,2.8-3.8,5.7-8.2,0-.2-.3-1.4-.8-3.7-.5-2.3-1-4.2-1.4-5.8-.4-1.6-.8-2.7-1.2-3.2-.3-.5-1-.8-1.9-.8s-.9.1-1.9.3c-.6.1-1.2.3-1.9.5l-.3-1.1,3.8-1.3c1-.3,1.9-.6,2.7-.8.8-.2,1.5-.3,2.1-.3,1,0,1.7.3,2.2.9.7.9,1.3,2.7,1.8,5.4l.7,3.9c2.1-3.1,3.6-5.4,4.8-6.6,1-1.2,2-2,2.9-2.6.9-.6,1.8-.9,2.6-.9s1.4.1,1.9.3c.9.4,1.3,1.2,1.3,2.3s-.2,1.4-.7,1.8c-.4.4-1,.6-1.7.6s-.5,0-.7,0c-.2,0-.5-.1-.7-.3l-.9-.4c-.3-.1-.5-.2-.7-.3s-.4-.1-.5-.1c-1,0-2.4,1.3-4.3,4-1.8,2.7-2.7,4.2-2.7,4.6s.2,1.5.6,3.3c.4,1.9.9,3.9,1.4,6,.5,2,.8,3.3,1.2,4.1.5,1.2,1.1,1.8,1.8,1.8s1.2-.3,1.9-1,1.6-1.9,2.9-3.7l1,.6c-1,1.8-2,3.3-3,4.5-2,2.4-3.9,3.6-5.7,3.6s-2-.5-2.7-1.6c-.4-.6-.8-1.7-1.1-3.1l-2.1-8.4-7,9.2c-1.4,1.6-2.4,2.7-3.2,3.2-.7.5-1.7.8-2.8.8s-2.4-.5-3-1.4c-.3-.5-.4-1-.4-1.7s.3-1.5.8-1.9Z"/><path class="cls-8" d="m182.4,190.2c0-.8,0-1.4,0-1.8,0-2.4.3-4.5,1-6.3.5-1.3,1.3-2.7,2.4-4,.8-1,2.3-2.4,4.4-4.3,2.1-1.9,3.5-3.4,4.2-4.5.6-1.1,1-2.3,1-3.7,0-2.4-.9-4.5-2.8-6.3-1.9-1.8-4.2-2.7-6.9-2.7s-4.8.8-6.6,2.5c-1.8,1.6-2.9,4.2-3.5,7.7l-6.3-.8c.6-4.7,2.3-8.2,5.1-10.7,2.8-2.5,6.5-3.7,11.2-3.7s8.8,1.3,11.7,4c2.9,2.7,4.4,5.9,4.4,9.7s-.5,4.2-1.5,6c-1,1.8-3,4.1-6,6.7-2,1.8-3.3,3.1-3.9,3.9-.6.8-1.1,1.8-1.4,2.9-.3,1.1-.5,2.9-.5,5.3h-5.9Zm-.4,12.3v-7h7v7h-7Z"/><path class="cls-8" d="m299.1,190.2c0-.8,0-1.4,0-1.8,0-2.4.3-4.5,1-6.3.5-1.3,1.3-2.7,2.4-4,.8-1,2.3-2.4,4.4-4.3,2.1-1.9,3.5-3.4,4.2-4.5.6-1.1,1-2.3,1-3.7,0-2.4-.9-4.5-2.8-6.3-1.9-1.8-4.2-2.7-6.9-2.7s-4.8.8-6.6,2.5-2.9,4.2-3.5,7.7l-6.3-.8c.6-4.7,2.3-8.2,5.1-10.7,2.8-2.5,6.5-3.7,11.2-3.7s8.8,1.3,11.7,4,4.4,5.9,4.4,9.7-.5,4.2-1.5,6-3,4.1-6,6.7c-2,1.8-3.3,3.1-3.9,3.9-.6.8-1.1,1.8-1.4,2.9-.3,1.1-.5,2.9-.5,5.3h-5.9Zm-.4,12.3v-7h7v7h-7Z"/><path class="cls-8" d="m299.1,308.3c0-.8,0-1.4,0-1.8,0-2.4.3-4.5,1-6.3.5-1.3,1.3-2.7,2.4-4,.8-1,2.3-2.4,4.4-4.3,2.1-1.9,3.5-3.4,4.2-4.5.6-1.1,1-2.3,1-3.7,0-2.4-.9-4.5-2.8-6.3-1.9-1.8-4.2-2.7-6.9-2.7s-4.8.8-6.6,2.5c-1.8,1.6-2.9,4.2-3.5,7.7l-6.3-.8c.6-4.7,2.3-8.2,5.1-10.7,2.8-2.5,6.5-3.7,11.2-3.7s8.8,1.3,11.7,4c2.9,2.7,4.4,5.9,4.4,9.7s-.5,4.2-1.5,6c-1,1.8-3,4.1-6,6.7-2,1.8-3.3,3.1-3.9,3.9-.6.8-1.1,1.8-1.4,2.9-.3,1.1-.5,2.9-.5,5.3h-5.9Zm-.4,12.3v-7h7v7h-7Z"/><path class="cls-8" d="m182.4,308.3c0-.8,0-1.4,0-1.8,0-2.4.3-4.5,1-6.3.5-1.3,1.3-2.7,2.4-4,.8-1,2.3-2.4,4.4-4.3,2.1-1.9,3.5-3.4,4.2-4.5.6-1.1,1-2.3,1-3.7,0-2.4-.9-4.5-2.8-6.3-1.9-1.8-4.2-2.7-6.9-2.7s-4.8.8-6.6,2.5c-1.8,1.6-2.9,4.2-3.5,7.7l-6.3-.8c.6-4.7,2.3-8.2,5.1-10.7,2.8-2.5,6.5-3.7,11.2-3.7s8.8,1.3,11.7,4c2.9,2.7,4.4,5.9,4.4,9.7s-.5,4.2-1.5,6c-1,1.8-3,4.1-6,6.7-2,1.8-3.3,3.1-3.9,3.9-.6.8-1.1,1.8-1.4,2.9-.3,1.1-.5,2.9-.5,5.3h-5.9Zm-.4,12.3v-7h7v7h-7Z"/><path class="cls-9" d="m60,198.4c.5-.4,1.1-.6,1.7-.6s.5,0,.8.1c.3,0,.6.2.9.4l1.2.6c.2,0,.3.2.5.2.1,0,.3,0,.5,0,.6,0,1-.1,1.3-.4.3-.3,1.1-1.3,2.4-3,.8-1.1,2.8-3.8,5.7-8.2,0-.2-.3-1.4-.8-3.7-.5-2.3-1-4.2-1.4-5.8-.4-1.6-.8-2.7-1.2-3.2-.3-.5-1-.8-1.9-.8s-.9.1-1.9.3c-.6.1-1.2.3-1.9.5l-.3-1.1,3.8-1.3c1-.3,1.9-.6,2.7-.8.8-.2,1.5-.3,2.1-.3,1,0,1.7.3,2.2.9.7.9,1.3,2.7,1.8,5.4l.7,3.9c2.1-3.1,3.6-5.4,4.8-6.6,1-1.2,2-2,2.9-2.6.9-.6,1.8-.9,2.6-.9s1.4.1,1.9.3c.9.4,1.3,1.2,1.3,2.3s-.2,1.4-.6,1.8-1,.6-1.7.6-.5,0-.7,0c-.2,0-.5-.1-.7-.3l-.9-.4c-.3-.1-.5-.2-.7-.3-.2,0-.4-.1-.5-.1-1,0-2.4,1.3-4.3,4-1.8,2.7-2.7,4.2-2.7,4.6s.2,1.5.6,3.3c.4,1.9.9,3.9,1.4,6,.5,2,.8,3.3,1.2,4.1.5,1.2,1.1,1.8,1.8,1.8s1.2-.3,1.9-1c.6-.7,1.6-1.9,2.9-3.7l1,.6c-1,1.8-2,3.3-3,4.5-2,2.4-3.9,3.6-5.7,3.6s-2-.5-2.7-1.6c-.4-.6-.8-1.7-1.1-3.1l-2.1-8.4-7,9.2c-1.4,1.6-2.4,2.7-3.2,3.2-.7.5-1.7.8-2.8.8s-2.4-.5-3-1.4c-.3-.5-.4-1-.4-1.7s.3-1.5.8-1.9Z"/><path class="cls-9" d="m82.4,320.6h-6.2v-39.2c-1.5,1.4-3.4,2.8-5.8,4.2-2.4,1.4-4.6,2.5-6.5,3.2v-5.9c3.4-1.6,6.4-3.6,9-5.9,2.6-2.3,4.4-4.5,5.5-6.7h4v50.3Z"/><path class="cls-18" d="m318.3,82v5.9h-33.1c0-1.5.2-2.9.7-4.3.8-2.3,2.2-4.5,4-6.7s4.5-4.7,8-7.6c5.4-4.5,9.1-8,11-10.6,1.9-2.6,2.9-5.1,2.9-7.4s-.9-4.5-2.6-6.2c-1.7-1.7-4-2.5-6.8-2.5s-5.3.9-7.1,2.7c-1.8,1.8-2.7,4.2-2.7,7.4l-6.3-.6c.4-4.7,2.1-8.3,4.9-10.8,2.8-2.5,6.6-3.7,11.4-3.7s8.6,1.3,11.4,4c2.8,2.7,4.2,6,4.2,9.9s-.4,4-1.2,5.9c-.8,1.9-2.2,4-4.1,6.1-1.9,2.1-5.1,5.1-9.5,8.8-3.7,3.1-6.1,5.2-7.1,6.3-1,1.1-1.9,2.2-2.6,3.3h24.6Z"/><path class="cls-10" d="m457.1,328.7c.2,1.3.3,2.8.3,4.4-5.6,6.2-20.7,8.5-29,1.7-8-8.3-8.2-9.9-16.8-13.6,0,0-.6-1.8,0-3.8,1.7,1.9,8.3,5.3,9.1,6.2.8.9,6.8,6.9,10.3,9.1,3.8,2.3,21,4.3,26.1-3.9Z"/><path class="cls-15" d="m441.1,154.6c3.4,11.2,4.2,19.2,4.9,27.5,1.4,11.7,3,19.7.4,33.2-3.7,2.6-9,2.6-16.7,2.8,6.1-19.5,2.1-43-2.9-62,1.4-.3,2.8-.4,4.1-.9,2.1,3.2,4.8,6.7,7.9,8.4,2.3-3.7,2-9.7.6-13.8h.1c.6,1.5,1.2,3,1.7,4.7Z"/><path class="cls-11" d="m429.7,218.1c6.8,0,12.6-.7,15.4-2-2.3,23.7-8.9,76.7-11.9,91.6-7.9.2-14.9,3-22.8,2.9-.2-8.5,9.2-68.1,7.9-75.1-13.3,20.3-34.2,67.1-40.2,77.1-5.6-7.5-10.4-17.9-19.4-21.5,4.8-11.5,29.1-59,37.8-77.5,5.8,2.9,22.4,4.7,33.2,4.5Z"/><path class="cls-20" d="m439.3,149.9c1.5,4.1,1.7,10-.6,13.8-4.3-2.6-8.3-7.8-9.8-12.8,3.3-.6,6.7-1.2,10-1.7.1.3.2.5.4.8Z"/><path class="cls-15" d="m397,169.4c-.2-1.1-.4-2.2-.7-3.3,6.5-6,16.4-7.8,24.9-9.2.3.8.5,1.7.8,2.5h0c5.4,18.3,7.4,40.2,2.2,58.7-11.8-.6-22.9-1.8-28.9-5,.6-1.2,2.5-7.9,3.5-14.2,6.4-2,2.1-10.2.3-11.6-.4-6.6-1.1-12.1-2.2-17.8Z"/><path class="cls-8" d="m424.7,92c.6,3.7-2.4,4.1-2.9.4-.6-3.7,2.4-4.1,2.9-.4Z"/><path class="cls-20" d="m420.9,111.5c-2.9,7.8-11.2,8.9-18.4,0,1.3,1.3,12.9,3.4,18.4,0Z"/><path class="cls-12" d="m429.1,129.7h0s-.1.2-.1.2c-2.6-1.5-5.8-2.2-8.7-1.5.5,1.4,1.9,2.9,3.7,2.5,6.2,13.1-17.5,9.9-23.6,1.8l.4-.4c.2,0,1.2-.9,1.6-2.5h-.1s0,0,0,0c-2.8-1.4-6.5-.7-8.6,1.7-10.5.8-25.3,5-33.7,10,4.7,4.5,7.3,8.1,8.2,13.9,4.9.2,17.8-1.8,25.5-.5.6,4,2.1,7.7,2.7,11.2,6.5-6,16.4-7.8,24.9-9.2.3.8.5,1.7.8,2.5h0c5.4,18.3,7.4,40.2,2.2,58.7,1.8,0,3.7,0,5.4,0,6.1-19.5,2.1-43-2.9-62,1.4-.3,2.8-.4,4.1-.9-.9-1.4-1.5-2.9-1.9-4.4,3.3-.6,6.7-1.2,10-1.7.1.3.2.5.4.8h.1c.1.2.2.5.3.8,6.8-2.7,13.3-1.2,19.9-2.8,2.6-5.8,2.3-9.5,2.6-15.2-12.1-1.6-20.7-4.2-33.2-2.8Z"/><path class="cls-8" d="m403.2,95.3c.6,4.2-2.9,4.8-3.5.5-.7-4.2,2.9-4.7,3.5-.5Z"/><path class="cls-14" d="m391.4,181.5c0,0-.1.2-.2.2,0-.1,0-.2,0-.3,0,0,0,0,0,0Z"/><path class="cls-19" d="m471.1,157.2c4.9-14.2,4.5-23.5-8.9-23.7-.3,5.4-.2,8.7-2.6,14.3h.2c-3.4,9.1-5.5,25.3-6.5,26.7-1.9,2.6-6,3.7-7.1,7.5h-.3c.4,4,1.1,7.8,1.4,12,5.7,2.1,12.8.3,13.3-6.6,0,0-.8-.2-.8-.3-2.2-.2-.3,2.2-2.3,2.5,2.8-3.8-.8-7.9.9-11.5h0c3.8-6.5,9.9-12.9,12.6-20.9Z"/><path class="cls-19" d="m431.9,89c-1-2.9-2-5.9-3.2-8.6h0c1.8,9.2,2.4,20.6-.4,19.5-.3-3.7-1-9.8-2.5-15.7-3-.8-7.9.6-9.2,1.8-.5.4-1.5-.9-1.5-1.8.2-4,6.8-3.4,9.7-3.9-3-9.8-8.1-17.6-16.6-12-15.1-3.1-13.1,9.1-13.2,16.3,3.2-.5,9.6-3.7,11,.9,0,.8-.2,2.1-.7,1.8-3-1.5-8.7.6-9.9,1.7.8,7.2,2.1,15.1.6,14.7-3.7-8.3-4.9-18-3.9-27.1h-.8c-4.9,8.1-.8,24-4.6,23.8-.8-1.4-1.5-3.7-1.9-6.6-13-5.7-1.5,21.4,4.3,13.8.6,6.6,7.5,12,12.2,14.4.6,3.4,2.5,8.5-.5,10.2l-.4.4c6.2,8.1,29.8,11.3,23.6-1.8-3.4.5-4.4-3.8-4.2-6.3h0c10.5-7.1,13.5-22.7,11.9-35.6h.2Zm-32.2,6.8c-.7-4.2,2.9-4.7,3.5-.5.6,4.2-2.9,4.8-3.5.5Zm15.3,21.6c-2.1.5-8,.4-12.4-6,1.3,1.3,12.9,3.4,18.4,0-1.2,3.2-2.6,5.1-6,5.9Zm8.8-22.3c-1.9.3-2.7-5.5-.8-5.7,1.8-.3,2.7,5.5.8,5.7Z"/><path class="cls-19" d="m399.2,187.3c-1.2-1.1-5-3.4-7.9-5.8-.3.4-.4.7-.8,1.1.3-.4.6-.7.7-1.2,0,0,0,0,0,0,0,0,0,0,0-.1-9.1-8.4-15.3-17.6-25.9-25,2.2-1.2,2.6-1,2.6-1-.9-5.6-3.1-8.8-7.7-13.4-9.6,6.1-19.6,12.6-8.5,22.2,9.8,8.4,24.3,17.4,33.6,23.9,0,0,0,0,0-.1,2,1.8,1.7,3.3,2,5.1-1.8-.9-1.8,0-1.2,1.6,3.1,7.8,7.6,6.2,12.3,4.2,6.4-2,2.1-10.2.3-11.6Z"/><path class="cls-17" d="m435.1,71.3c-4.8-9.4-18.2-26.3-31-15.6-11.5-5.1-24.6,6-27.7,11.5-3.7,8.8-11.2,35.5,1,10.8-1.4,5.2-7.2,29.9-2.2,32.1,2.2-1.4,1.1-15.9,5-20.5,0,1.4,0,2.8.1,4,1.3-.8,3.4-1.1,4.5.2.4,2.8,1.1,5.1,1.9,6.6,3.8.2-.3-15.6,4.6-23.9h.8c-1,9.2.3,18.9,3.9,27.2,1.5.3.2-7.5-.6-14.7,1.2-1.1,6.9-3.2,9.9-1.7.6.3.8-1,.7-1.8-1.4-4.6-7.8-1.4-11-.9.2-7.3-1.9-19.5,13.2-16.3,8.5-5.7,13.6,2.2,16.6,12-2.9.5-9.4-.1-9.7,3.9,0,.9,1,2.3,1.5,1.8,1.3-1.1,6.2-2.5,9.2-1.8,1.4,5.9,2.2,12,2.5,15.7,2.8,1.1,2.2-10.4.4-19.5h0c1.2,2.6,2.3,5.6,3.2,8.5h-.2c.8,7,.1,16-1.8,21.8h0c0,4.5-.3,4.5-.9,8.5,5.9,5.1,3.3-23.8,4.1-24.6l.5-.2c2.2,7.3,3.8,13,5.4,11.6.5-6.4-6.2-22.4-7.6-30.2,3.5,1.7,6.4,13.8,8.5,12.6,1.4.2-4.4-16.5-4.9-17.4Z"/><path class="cls-17" d="m392.4,115.2c-1.7-2.1-3.1-4.6-3.4-7.5-.2.4-.6.7-.9.9.2,5.8,1,13.8,4.3,16.1.9-1.1-1.4-7.5,0-9.5Z"/><path class="cls-17" d="m383.5,107.4c-1-1.1-2-2.6-2.6-3.6,0,4.8-.3,14,4.2,15.7,1.7.5-2.2-8.8-1.6-12.1Z"/><path class="cls-10" d="m373.3,320.6c-.4,2.7-1.4,5.2-4,7,7.9-6-5.2-14.9-11.4-18.7-14.3-9-11.3-28.9-18.7-28.7,8.6-4.7,10.3,16.6,14.1,20.1,8.2,11.1,16.3,9,20,20.3Z"/><path class="cls-16" d="m367.4,315.9c3.1,3.7,6,6.6,3.8,9.6-2.8,3.9-7.8,5.7-11.6.4-2.7-3.9-3-5.6-5.4-9.2-7.1-8.6-24.9-13.3-20.4-28.7,10.6-24,8.2,11,24.1,20.7,4.3,2.7,6.8,4,9.4,7.1Z"/><path class="cls-13" d="m445.3,315.6l-12.1-7.8c-7.5.2-14,2.7-21.6,2.9-.4,2.6-.8,5.1-.5,6,1.4,2.4,8.6,5.6,9.5,6.8,1,1.1,7.8,8,11.6,9.8,3.1,1.3,20.6,3.4,24.9-4.6-1.4-8.5-7.7-12.5-11.8-13.1Z"/><path class="cls-13" d="m359,291.3c-.1.2-.3.3-.3.2-4.8-5.8-6.8-14.4-16.4-12.1,5.3.9,8.1,17.8,11,20.9,8.2,11.1,16.3,9,20,20.3.7-4.1,0-8.7,1.5-12.7-4.3-6.3-8.8-13.7-15.8-16.6Z"/><path class="cls-2" d="m420.9,111.5c-5.5,3.4-17.1,1.2-18.4,0,7.1,9,15.5,7.9,18.4,0Z"/><path class="cls-4" d="m445.1,216.1c-2.3,23.7-8.9,76.7-11.9,91.6-7.9.2-14.9,3-22.8,2.9-.2-8.5,9.2-68.1,7.9-75.1"/><path class="cls-4" d="m425.2,227c-17.5,18.9-39.1,73.4-47.2,85.6-5.6-7.5-10.4-17.9-19.4-21.5,4.8-11.5,29.1-59,37.8-77.5"/><path class="cls-1" d="m339.2,280.2c-5.6,2.7-7.4,13.3-4.3,19,3.5,8.5,15,11,19.4,17.6,3.6,6.7,9.3,18.6,16.9,8.7,3-6.2-7.5-13.1-13.3-16.7-14.3-9-11.3-28.9-18.7-28.7"/><path class="cls-1" d="m373.3,320.6c-.4,2.7-1.4,5.2-4,6.9"/><path class="cls-1" d="m374.8,307.8c-1.4,4-.8,8.7-1.5,12.7"/><path class="cls-1" d="m366.5,296.7c-.8.7-1,.8-2.3,1.5-2.4,1.3.4-.9-5.7-6.6-1.6-1.5-3.7-3.2-6.7-5.2"/><path class="cls-1" d="m339.2,280.2c5.5-2.5,12.3-.6,14.2,3.9.3,1.3-1.8,1.9-4.9,4.1"/><path class="cls-1" d="m373.3,320.6c-3.8-11.3-11.8-9.2-20-20.3-2.9-3.1-5.7-20-11-20.9"/><path class="cls-1" d="m359,291.2s0,0,0,0c-.1.2-.3.3-.3.2-1.7-2.4-4.2-6.1-5.3-7.6"/><path class="cls-1" d="m457.4,333.1c.2-23.4-26.4-22.1-26.3-.5"/><path class="cls-1" d="m411.7,310.7c-.4,2.6-.8,5.1-.5,6,1.4,2.4,8.6,5.6,9.5,6.8,1,1.1,7.8,8,11.6,9.8,3.1,1.3,20.6,3.4,24.9-4.6,0,0,0,0,0,0"/><path class="cls-1" d="m438,318s-7.6-6.2-12.6-9.3"/><path class="cls-1" d="m445.4,315.6c-.1,0-12.1-7.8-12.2-7.9"/><path class="cls-1" d="m457.4,333.1c-5.6,6.2-20.7,8.5-29,1.7-8-8.3-8.2-9.9-16.8-13.6,0,0-.6-1.8,0-3.8"/><path class="cls-1" d="m395.4,213c9.8,4.6,39.4,8,51,2.3"/><path class="cls-1" d="m435.9,143.6c10,14.7,13.6,54.4,10.5,71.7"/><path class="cls-1" d="m398.9,198.8c-1,6.3-2.9,13-3.5,14.2"/><path class="cls-1" d="m393.6,155.4c3.2,11.1,5,20.1,5.6,31.9"/><path class="cls-1" d="m429.1,129.7c12.4-1.4,21.1,1.2,33.2,2.8-.4,5.7,0,9.4-2.6,15.2-6.6,1.6-12.8.2-19.5,2.7"/><path class="cls-1" d="m399.5,158.3c-5.7-7.6-25.3-2-31.3-2.9"/><path class="cls-1" d="m393.6,131.5c-10.5.8-25.3,5-33.7,10,4.7,4.5,7.3,8.1,8.2,13.9"/><path class="cls-1" d="m423.8,130.6c6.9,13.7-17.8,10.2-23.9,1.7"/><path class="cls-1" d="m462.3,133.5c3.4.7,4.4.7,6.7,1.3"/><path class="cls-1" d="m462.3,143.2c-5.3,7.3-7.6,29.5-9,31.3-1.9,2.6-6,3.7-7.1,7.5"/><path class="cls-1" d="m469,134.8c7,2.2,5.6,12.2,2.1,22.4-2.7,8-8.8,14.4-12.6,20.9h0c-.2.3-.3.5-.5.8"/><path class="cls-1" d="m360.5,141.9c-9.6,6.1-19.7,12.7-8.6,22.2,9.8,8.4,24.3,17.4,33.6,23.9"/><path class="cls-1" d="m363.4,154.9c12.1,7.6,19.1,18.6,29.3,27.7"/><path class="cls-1" d="m368.1,155.4s-.5-.2-2.6,1"/><path class="cls-1" d="m419.7,124.7c-.1,2.5.7,6.4,4,6.4"/><path class="cls-1" d="m401.5,124.4c1.6,2.9,1.1,6.9-.8,7.9"/><path class="cls-4" d="m384.8,187.3c4.3,2.8,1.3,6.3,5.2,9.4"/><path class="cls-4" d="m391.3,181.4c7,5.7,10.1,4.7,11.3,14.6"/><path class="cls-4" d="m387.8,193.1c-4.4-2.3,1.5,6.7,2.8,7.2,4.5.5,10.5-1.3,11.9-5"/><path class="cls-1" d="m447.5,194c5.7,2.2,12.7.2,13.2-6.6,0,0-.8-.2-.8-.3-2.2-.2-.3,2.2-2.3,2.5,2.8-3.8-.8-7.9.9-11.5"/><path class="cls-5" d="m402.2,129.8c-4.2-2.1-9.6.7-10.4,5.2,10.7,2.1,20.9,6.5,29.8,12.7,1.6-6,5.4-11.5,10.5-15.1-2.7-3.4-7.4-5.2-11.7-4.3"/><path class="cls-4" d="m421.3,156.9c.3.8.5,1.7.8,2.5h0c5.2,18.1,7.6,39.9,2.2,58.2"/><path class="cls-4" d="m416.9,144.8c1.6,4.3,3.1,8.2,4.4,12.1"/><path class="cls-4" d="m422.7,143.5c7.8,23.3,13.9,50.3,6.9,74.6"/><path class="cls-4" d="m430.9,155.2c-.9-1.4-1.5-2.9-1.9-4.4,3.3-.6,6.7-1.2,10-1.7,1.9,4.2,2.1,10.6-.2,14.5-3.1-1.7-5.8-5.2-7.9-8.4Z"/><path class="cls-4" d="m421.3,156.9c-8.5,1.4-18.5,3.2-24.9,9.2"/><path class="cls-4" d="m426.4,156.2c1.4-.3,2.8-.5,4.2-.8"/><path class="cls-2" d="m402.1,130.4c-.1-2.6-.4-5.4-.9-8.3"/><path class="cls-2" d="m431.6,89.1c1.6,12.8-1.4,28.5-11.9,35.5h0c-8.3,5.3-29.1-4.9-30.7-17"/><path class="cls-2" d="m425.7,84.3c-3-.8-7.9.6-9.2,1.8-.5.4-1.5-.9-1.5-1.8.2-3.9,6.7-3.4,9.6-3.8"/><path class="cls-2" d="m395.3,84.7c3-.8,9.2-3.4,10.5.9,0,.8-.2,2.1-.7,1.8-3-1.5-8.7.6-9.9,1.7"/><path class="cls-2" d="m421.9,92.4c.5,3.7,3.5,3.3,2.9-.4-.5-3.7-3.4-3.3-2.9.4Z"/><path class="cls-2" d="m399.7,95.8c.6,4.3,4.2,3.7,3.5-.5-.6-4.2-4.2-3.7-3.5.5Z"/><path class="cls-2" d="m420.7,104.4c-4.1,3-6.5,3.6-11.3,2"/><path class="cls-2" d="m385,94.4c-2.1-3.2-7.7-.3-6.3,3.6.7,4,5.5,14.6,10.3,9.7"/><path class="cls-2" d="m401.2,64.9c-14.6,3.2-9.8,28.5-5.4,38.9,3.8-6.3-11-40.6,12.3-35.4"/><path class="cls-2" d="m405.7,61.7c-19.2-7-25.1,25.8-19.1,38.8,3.8.2-.3-15.6,4.6-23.9"/><path class="cls-2" d="m377.4,77.9c4-13.3,15.6-21.2,27.8-19.5"/><path class="cls-2" d="m380.1,89.6c-3.9,4.6-2.8,19.1-5,20.5-5-2.2.9-26.8,2.2-32.1"/><path class="cls-2" d="m431.4,76.1c3.5,1.7,6.4,13.8,8.5,12.6,1.4.2-4.4-16.5-4.9-17.4-4.8-9.4-18.2-26.3-31-15.6"/><path class="cls-2" d="m408.8,60c8.8-5.7,20.9,5.2,22.6,16.1,1.3,7.7,8,23.8,7.6,30.2-3.9.4-7-20.8-10.4-25.8"/><path class="cls-2" d="m408.1,68.4c15.5-9.6,19.2,22.3,20.1,31.6,2.8,1.1,2.2-10.4.4-19.5-.7-9.8-10.1-20.9-17.6-17.2"/><path class="cls-2" d="m388.1,108.6c.2,5.8,1,13.8,4.3,16.1.9-1.1-1.4-7.5,0-9.5"/><path class="cls-2" d="m429.9,110.9c0,4.5-.3,4.5-.9,8.5,5.9,5.1,3.3-23.8,4.1-24.6"/><path class="cls-2" d="m404.1,55.7c-11.5-5.1-24.6,6-27.7,11.5"/><path class="cls-2" d="m387,66.9c-7.9,9.1-6.6,15.8-6.8,26.8"/><path class="cls-2" d="m380.9,103.8c0,4.8-.3,14,4.2,15.7,1.7.5-2.2-8.8-1.6-12.1"/><path class="cls-2" d="m377.4,77.9c-12.2,25-4.8-1.9-1-10.7"/></svg>