<?xml version="1.0" encoding="UTF-8"?><svg id="Layer_1" xmlns="http://www.w3.org/2000/svg" width="150" height="196" viewBox="0 0 150 196"><defs><style>.cls-1{stroke-linejoin:round;}.cls-1,.cls-2{stroke-linecap:round;}.cls-1,.cls-2,.cls-3{stroke:#000;}.cls-1,.cls-2,.cls-3,.cls-4{fill:none;}.cls-2,.cls-5,.cls-3,.cls-4{stroke-miterlimit:10;}.cls-5{fill:#5b2ac2;}.cls-5,.cls-4{stroke:#fff;}.cls-6,.cls-7,.cls-8,.cls-9,.cls-10,.cls-11,.cls-12,.cls-13{stroke-width:0px;}.cls-7{fill:#4d300b;}.cls-8{fill:#d90203;}.cls-9{fill:#bf9465;}.cls-10{fill:#af877b;}.cls-11{fill:#b52d00;}.cls-12{fill:#00a553;}.cls-13{fill:#e6c1ae;}</style></defs><path class="cls-8" d="m88.9,139.9c0,7.2-2.7,15.9-.7,24.6-1.6-.1-5.2-.6-6.9.7,1.9.6,5.3,3.9,4.5,3.5-2.2,1.3-3.2,4.9-2.4,7.5,1.2-1.2,2.7-2,4.3-2.2,1.1,2.5,1.5,3.2,3.7,4.4,1.1,4.4,2.2,8.5,2.8,12-12.6,4.9-27.6,5-41.4,2.4h0c4.2-2.8,8.7-4.9,13.5-6.4-4.9-.9-10,0-14.2,2.7,1.5-5.6,9.5-7.3,13.7-10.8-3.9-.4-8,.6-11.2,2.9,1.3-5,3.7-9.7,7.1-13.5-5.2,2.5-9.2,7.3-10.9,12.8-.2-2.4-2.8-5.4-4.9-6.5.4-5.7.6-10.1.4-12.7h.5c1.5,1.6,3.5,2.8,5.8,3.1-.9-1.9-1.4-4-1.5-6.1,3.6-.8,6.8-1.7,7.7-5.4-1.6.7-3.3-1.3-5-1.5,2.1-3.6,1.2-5.7-1.2-8.4,1.2,1.3-3.6,4.9-3.6,4.9-1.2-1.2-4-4.1-6.1-4.8.1-.4.2-.8.4-1.2-.8-.1-3-1-5.6-2.1,2.1-1.4,3.6-3.4,4.6-5.4-.5.2-1.1.3-1.7.5,1.9-2.4,4-5.4,3.4-8.6l-1.4.4c.6-1,.8-2.2.5-3.3-1.9.7-3.5,1.9-4.7,3.5l-.3-.9c-2.6,1.4-4.6,3.8-5.7,6.5-.1-.3-.3-.6-.4-1-1.1,1.3-1.8,3.3-1.7,5-.8-.4-1.4-.7-1.6-.8,4.7-8.9,6.3-20.1,17.9-24.5h0c2.4,1.3,4.8,9,5.6,11.8,2.5,7.7,20.2,3.9,26.1,2.4.3,1.1.6,2.3.9,3.4-2.8,1.8-6.9,4.1-7.8,4.6-1.4.8-17-3.2-22.3-4.7l3.2,8c2.9,2.2,19,5.9,21.2,5.1.6-.2,5.1-3.6,6.7-4.8.6,2-2.1,8.4,2.1,8,3.3-9.8,2.9-23.1-2.2-34.2h.2c6.4.7,8.1,5.1,10.8,10.1-1.3.4-3.3,1.8-3.4,3.1,1.3,0,2.6.3,3.6.9-.6,2.2-.6,4.4.2,6.4.8-1.2,1.8-2.4,2.9-3.2.9,2,1.9,4.1,3.1,6.1-1.9,2-5.2,4.9-8.5,5.6Zm1.2,47.9c-2.1-1-1.8-5.2-4.4-5.1.8-2.3-2-4.6-4.1-3.7,1.7-3.9-4.8-6.1-5.5-1.8-3.3-3-6.4,3-2.3,4.2-1.6.5-2.1,3.7-1,5,1.6,1.9,4.7-.4,4.7-.4-.1.4,2.6,4.9,4.7,2.1,3.5,3.9,4.5-2.4,7.9-.4Zm-7.3-29.6c2.6-3.6,1.9-9.4-1.5-12.1.4,3.1-1.8,7.9-4.2,10.2,2-3.3,2.8-7.3,2.1-11-5.5.2-9.4,5.9-11.2,10.6.8-.3,1.5-.6,2.3-1-2.3,3.7-4.9,8.2-3.5,12.7.6-.3,1.3-.5,1.9-.8-.7,1.5-.8,3.2-.2,4.7,2.5-1.3,4.6-3.2,6.1-5.7.2.4.4.8.6,1.3,3.4-2.4,5.9-6,7-10.1.2.4.5.9.7,1.3Z"/><path class="cls-13" d="m94.3,128.2c-1.2.9-2.1,2-2.9,3.2-.8-1.9-.8-4.2-.2-6.4l1.4-.6c.5,1.2,1.1,2.5,1.7,3.8Z"/><path class="cls-13" d="m92.7,124.5l-1.4.6c-1-.8-2.6-.8-3.7-1,.7-1.4,2.1-2.6,3.5-3,.5,1.1,1,2.3,1.6,3.4Z"/><path class="cls-13" d="m91.4,178.3c-2.2-1.2-2.6-1.8-3.7-4.4-1.6.2-3.1,1-4.3,2.2-.8-2.6.2-6.2,2.4-7.5.8.4-2.5-2.9-4.5-3.5,1.8-1.2,5.3-.8,6.9-.7.8,4.4,2,9.2,3.1,13.8Z"/><path class="cls-13" d="m88.6,185.9c.3.8.8,1.5,1.5,1.9-3.4-2-4.5,4.3-7.9.4.8-1.1,1.1-2.8.4-3.4,1.4.2,2.7-.8,3.1-2.1,1.7-.2,2.3,2,2.9,3.2Z"/><path class="cls-13" d="m82.2,188.2c-2,2.8-4.8-1.7-4.7-2.1-4,3.3-7.7-1.4-3.7-4.6-4.2-1.2-1-7.2,2.3-4.2.7-4.4,7.2-2.1,5.5,1.8,4.5-1.7,6,6,1,5.8.7.6.5,2.4-.4,3.4Z"/><path class="cls-13" d="m84.3,151.3c.5,2.4,0,4.9-1.4,6.9-.2-.4-.5-.9-.7-1.3-1,4-3.5,7.7-7,10.1-.2-.4-.4-.8-.6-1.3-1.4,2.4-3.6,4.4-6.1,5.7-.5-1.5-.4-3.2.2-4.7-.6.3-1.3.5-1.9.8-1.3-4.5,1.2-9,3.5-12.7-.8.3-1.5.6-2.3,1,1.8-4.6,5.7-10.3,11.2-10.6.6,3.8-.1,7.8-2.1,11,2.5-2.3,4.6-7.1,4.2-10.2,1.5,1.1,2.5,3.2,2.9,5.2Z"/><path class="cls-7" d="m80.2,137.1c-.6-10.1-3-19.5-9.9-26.8h0c0-1.8.7-6.9.7-6.9,1.4-.4,2.7-1.2,3.9-2.2,7.4,9.8,10.9,27.1,8.8,38.3,0,.9-.5,5.4-1.5,5.7-1,.3-2.5-.6-2.4-1.6.2-2.4.3-4.5.3-6.4Z"/><path class="cls-7" d="m82.2,62c2.4,6.8.5,22.3-.1,19.5-1.5-9.3-2.6-8.1-2.6-14-4.5-12.1-27.2-14.7-30.2-13.4-4.1,5.7-.3,23.4-9.4,31.7-4.4-2.3-5.7,2.9-4.1,5.4-9.5-4.5-15-30.1-3.4-39.5,15.6-18.1,44-10.7,49.8,10.4Z"/><path class="cls-9" d="m45.8,96c-2.8,3.5-9-1.8-10-4.8-1.6-2.5-.3-7.7,4.1-5.4,9.1-8.4,5.2-25.8,9.4-31.7,2.9-1.3,25.7,1.4,30.2,13.4,0,5.9,1.1,4.7,2.6,14,.9,6.2-2.8,19.4-11,21.9,0,0-.7,5-.7,6.8h0c4,4.4,6.9,9.6,8.1,15.3-33.7,6.7-21.4-2.4-31.6-14.1h0c1.5-.6,3.3-.9,5.2-1-.4-7.7-3.4-13.5-6.1-14.4Zm30.1-20.4c1.7-.5-.8-7-2.4-6.2-1.7.5.8,7,2.4,6.2Zm-20.4,5.7c2-.7-.8-7.8-2.7-6.9-2,.7.8,7.8,2.7,6.9Z"/><path class="cls-13" d="m79.2,128.9c.6,2.4.9,5,1,8.2-1.6,1.2-6.1,4.6-6.7,4.8-2.1.8-18.3-2.9-21.2-5.1l-3.2-8c5.4,1.5,20.9,5.5,22.3,4.7.9-.5,5-2.8,7.8-4.6Z"/><path class="cls-6" d="m76,72c1.6,4-1,5.1-2.5,1-1.6-4,1-5.1,2.5-1Z"/><path class="cls-13" d="m65.8,178.2c-4.2,3.5-12.3,5.2-13.7,10.8,4.2-2.6,9.4-3.6,14.2-2.7-4.8,1.4-9.3,3.6-13.5,6.3h0c-3.3-.5-6.5-1.3-9.5-2.2.6-1.1,1.1-3.4,1.5-6.3,1.5.8,1.5,1.2,2.6,2.5.8-3.7.7-6.4-1.8-9.4h0c0-1.1.2-2.2.3-3.2,2.1,1.1,4.7,4.1,4.9,6.5,1.7-5.5,5.7-10.3,10.9-12.8-3.4,3.9-5.8,8.6-7.1,13.5,3.2-2.3,7.3-3.4,11.2-2.9Z"/><path class="cls-13" d="m51,158.3c-1.7.7-5.2-2.6-5.3-4.7,1.9.6,7.4-.5,8.1-2.1,1.6.2,3.4,2.1,5,1.5-.9,3.7-4.2,4.7-7.7,5.4,0,0,0,0,0,0Z"/><path class="cls-6" d="m55.7,77.2c1.8,4.5-1.3,5.7-3,1.2-1.8-4.4,1.3-5.7,3-1.2Z"/><path class="cls-13" d="m53.8,151.4c-.7,1.6-6.2,2.8-8.1,2.1,1.4-1.3,3.7-3.6,3.2-5.6h0s0,0,0,0c0,0,4.8-3.6,3.6-4.9,2.5,2.7,3.3,4.8,1.2,8.4Z"/><path class="cls-13" d="m51,158.3c.2,2.2.7,4.2,1.5,6.1-2.3-.4-4.3-1.5-5.8-3.2h-.5c-.2-1.9-.6-4.5-1.1-7.2h.6c.4,1.8,3.6,4.9,5.2,4.2,0,0,0,0,0,0Z"/><path class="cls-13" d="m48.9,148c.6,1.9-1.8,4.3-3.2,5.6,0,.1,0,.3,0,.4h-.6c-.8-3.6-1.7-7.4-2.6-9.6.1-.4.2-.8.4-1.2,2,.7,4.9,3.6,6.1,4.8h0s0,0,0,0Z"/><path class="cls-8" d="m45.6,177.2c2.4,2.9,2.5,5.6,1.8,9.4-1.1-1.4-1.1-1.8-2.6-2.5.3-2.1.6-4.4.8-6.8h0Z"/><path class="cls-13" d="m31.4,137.1c-.4-.2-.7-.3-1-.5,0-1.7.6-3.7,1.7-5,.1.3.3.6.4,1,1-2.8,3.1-5.1,5.7-6.5l.3.9c1.2-1.6,2.9-2.8,4.7-3.5.3,1.1,0,2.3-.5,3.3l1.4-.4c.6,3.3-1.5,6.2-3.4,8.6.6-.2,1.1-.3,1.7-.5-1.1,2.1-2.5,4.1-4.6,5.4-1.2-.5-2.4-1.1-3.6-1.6.3-1.7.8-3.5,1.9-4.9-1.6,1.3-2.7,2.3-3.4,4.2-.4-.2-.8-.4-1.1-.5Z"/><path class="cls-10" d="m36.9,170.8c.3.6.5,1.1.7,1.7-.3-.2-.6-.3-.9-.4,0-.5.1-.9.2-1.3Z"/><path class="cls-8" d="m32.6,137.7c.7-1.9,1.8-2.9,3.4-4.2-1.1,1.4-1.5,3.2-1.9,4.9-.5-.2-1-.5-1.5-.7h0Z"/><path class="cls-9" d="m129.2,142.5c-4.4-1.5-9.7.2-13.2,3-2.7-1.1-7.1,1-7.2,3.9-.7,0-1.4.5-2,1.1-1.8-.4-3.6-.6-5.3-.7-1.5-2.7-4.8-10.1-6.3-13.4-1.6,1.3-3.8,2.9-6.2,3.4-.1,3.7-.6,7.8-1.3,13.3,7,13,5.1,18.3,21,10.3-1.5,5.4,7.5,4.8,5.4-.7h0c1-.3,1.9-1,2.4-2,2.2,1.7,6,1.8,6.3-1.5h0s0,0,0,0c1.2-.1,2.6.6,3.6-.3,1.6-2.5,4.1-9-1.5-6.5h0c-2.3.5-4.9-1.1-3.3-3.5,1.8-2.7,6.7-3.6,7.7-6.5Z"/><path class="cls-9" d="m41.4,174.2c-1.5.5-1.7,4-3.7,2.9.8-1.5,1.4-4.6-.9-5,.6-9.4,2.8-18.1,6.5-30.1-2.5-.6-8.7-3.5-11.8-4.9-.2,1.3-8.3,27.6-7.2,28-7.1,1.3-15.4,12-1.7,6.4,2.7,2.4-1,12.9,6.4,8.4,1,2.4,4.3,2,6,.5,5.6,4.9,12.9-5.2,6.6-6.2Z"/><path class="cls-2" d="m51.9,110.4c-.4-7.6-3.4-13.5-6-14.3"/><path class="cls-3" d="m75,101.2c-1.2,1-2.5,1.8-3.9,2.2,0,0-.7,5-.7,6.8"/><path class="cls-2" d="m79.5,67.6c1,11.2,7.2,21.3-4.5,33.7"/><path class="cls-1" d="m73.5,72.9c1.5,4.1,4.1,3,2.5-1-1.5-4.1-4.2-3-2.5,1Z"/><path class="cls-1" d="m52.7,78.4c1.7,4.5,4.8,3.3,3-1.2-1.7-4.5-4.8-3.3-3,1.2Z"/><path class="cls-1" d="m63.4,90.7c4.1,1.5,8.4.5,12.1-2.5"/><path class="cls-1" d="m40,85.8c-8-2.7-4.3,8.3,0,10.3,2,1.2,6.4,1.8,5.9-1.1"/><path class="cls-1" d="m79.5,67.6c-4.5-12.1-27.2-14.7-30.2-13.4-4.1,5.7-.3,23.4-9.4,31.7"/><path class="cls-2" d="m37.2,166.2c.9-6.7,5.4-23.7,9-32.6"/><path class="cls-2" d="m31.5,136.9c0,.3-7.1,25.1-7.2,25.4"/><path class="cls-2" d="m43.2,142c-3.4-1-10.7-4.3-14.5-6.2,4.8-10,8.5-24.8,23.2-25.5"/><path class="cls-2" d="m95.2,136.6c1.5,3.5,4.8,10.8,6.4,13.6"/><path class="cls-2" d="m88.9,139.9c3.4-.7,6.6-3.6,8.5-5.6-5.6-7.9-6-21.5-17.1-23.5"/><path class="cls-2" d="m92.1,161.8c2.5,9.7,10.7,4,16.5,1.7"/><path class="cls-2" d="m106.7,150.6c-7.6-2.7-19,2.1-14.7,11.2"/><path class="cls-2" d="m36.9,170.8c.2-2,.1-3.6.3-4.6"/><path class="cls-2" d="m24.3,162.3c-.2,1-.2,1.9-.2,2.8"/><path class="cls-2" d="m94.2,190.3c-15.6,6.1-34.7,4.9-50.9,0,4-14.3,4.4-32.7-.7-46"/><path class="cls-2" d="m87.7,153.2c-1.3,11.4,4.6,25.9,6.5,37.2"/><path class="cls-2" d="m88.5,129.2c1,8.7.3,14.4-.9,24"/><path class="cls-2" d="m87.7,153.2c1.4,3.2,2.9,5.4,4.4,8.6"/><path class="cls-2" d="m68.3,83.6c.7-2.9,4.6-6.9,5.5-1.9"/><line class="cls-3" x1="124.8" y1="152.5" x2="124.8" y2="152.5"/><path class="cls-3" d="m108.8,151c0-.6,0-1,0-1.5,0-3,4.5-5.1,7.2-3.9,3.5-2.8,8.9-4.5,13.2-3-1.1,2.9-5.9,3.8-7.7,6.5-1.6,2.4,1,4,3.3,3.5"/><path class="cls-3" d="m116.6,155.9c1.5,2.4,3.2-1.9,5-1.2,3.4,3.9-.4,10.3-5.5,6.1"/><path class="cls-3" d="m108.8,149.5c-5.6,1.4-6,13.3,0,13.8"/><path class="cls-3" d="m122.3,155.1c.8-2,4.3-4.5,6-2.2.3,2-1.2,4.3-2,6.1-1,.9-2.4.2-3.6.3"/><path class="cls-3" d="m114,162.9c-2.6-10.3-9.2,4.1-2.9,4.3,2.7.5,3.7-1.8,2.9-4.3Z"/><path class="cls-3" d="m114,162.8c1.1-.3,2-1.1,2.4-2.1"/><path class="cls-3" d="m37.7,172.5c-1.1-4.4-4.4-5.4-8.2-6.4-7-5.9-24.1,12.2-7.1,5.4,2.6,2.2-.5,7.6,3,9.3,3.7.7,6.7-4.2,8-7.1.1-4.5-5.4-1.1-6.7.9"/><path class="cls-3" d="m28.8,179.7c2,4.3,7.6.5,8.9-2.6,2.3-3.9-1.2-7-4.3-3.4"/><path class="cls-3" d="m34.5,180.2c5.6,5.4,13.3-4.8,6.9-6-1.5.5-1.6,3.9-3.7,2.9"/><path class="cls-1" d="m53.1,67.9c-2-.3-4.2,1-4.9,2.9"/><path class="cls-1" d="m68.3,65.2c1.3-1.8,4-2.5,6-1.5"/><path class="cls-3" d="m82.1,81.6c5.9-15-4.5-43.7-31.6-39.6-26.1,2.4-32.5,36.2-14.7,49.2"/><path class="cls-3" d="m46.7,111.4c2.4,1.2,4.8,8.9,5.6,11.7,2.5,7.7,20.2,3.9,26.1,2.4"/><path class="cls-1" d="m79.3,128.9c-2.8,1.8-7,4.2-7.8,4.6-1.4.8-17-3.2-22.3-4.7l3.2,8c2.9,2.2,19,5.9,21.2,5.1.6-.2,5.1-3.6,6.7-4.8,0,0,0,0,0,0"/><line class="cls-1" x1="79.3" y1="145.1" x2="79.3" y2="145.2"/><path class="cls-1" d="m81.4,146c.4,3.1-1.8,7.9-4.2,10.2,2-3.3,2.8-7.3,2.1-11"/><path class="cls-1" d="m81.4,146c3.4,2.7,4,8.6,1.5,12.1-.2-.4-.5-.9-.7-1.3-1,4-3.5,7.7-7,10.1-.2-.4-.4-.8-.6-1.3-1.4,2.4-3.6,4.4-6.1,5.7-.5-1.5-.4-3.2.2-4.7-.6.3-1.3.5-1.9.8-1.3-4.5,1.2-9,3.5-12.7-.8.3-1.5.6-2.3,1,1.8-4.6,5.7-10.3,11.2-10.6"/><path class="cls-1" d="m32.6,137.7c.7-1.9,1.8-2.9,3.4-4.2-1.1,1.4-1.5,3.2-1.9,4.9"/><path class="cls-1" d="m30.4,136.6c-.1-1.7.6-3.6,1.7-4.9.1.3.3.6.4,1,1-2.8,3.1-5.1,5.7-6.5l.3.9c1.2-1.6,2.9-2.8,4.7-3.5.3,1.1,0,2.3-.5,3.3l1.4-.4c.6,3.3-1.5,6.2-3.4,8.6.6-.2,1.1-.3,1.7-.5-1.1,2.1-2.6,4.1-4.7,5.5"/><line class="cls-1" x1="53.5" y1="151.5" x2="53.8" y2="151.4"/><line class="cls-1" x1="51" y1="158.3" x2="51" y2="158.3"/><line class="cls-1" x1="48.9" y1="148" x2="48.9" y2="148"/><path class="cls-1" d="m46.8,161.3c1.5,1.7,3.5,2.8,5.8,3.2-.9-1.9-1.4-4-1.5-6.1,3.6-.8,6.8-1.7,7.7-5.4-1.6.7-3.3-1.3-5-1.5,2.1-3.6,1.2-5.7-1.2-8.4,1.2,1.3-3.6,4.9-3.6,4.9-1.1-1.2-4-4.1-6-4.8"/><path class="cls-1" d="m48.9,148c.6,1.9-1.8,4.3-3.2,5.6"/><path class="cls-1" d="m51.3,158.1c-1.8,1.2-5.5-2.4-5.6-4.6"/><path class="cls-1" d="m53.8,151.4c-.7,1.6-6.2,2.8-8.1,2.1"/><path class="cls-1" d="m91.4,121c-1.5.4-3.6,1.7-3.8,3.2,1.3,0,2.6.3,3.6.9-.6,2.2-.6,4.4.2,6.4.8-1.2,1.7-2.3,2.8-3.2"/><path class="cls-1" d="m66.3,186.3c-4.8,1.4-9.3,3.6-13.5,6.3"/><path class="cls-1" d="m65.8,178.2c-4.2,3.5-12.3,5.2-13.7,10.8,4.2-2.6,9.4-3.6,14.2-2.7"/><path class="cls-1" d="m61.7,167.6c-3.4,3.9-5.8,8.6-7.1,13.5,3.2-2.3,7.3-3.4,11.2-2.9"/><path class="cls-1" d="m46,174c2,1.2,4.6,4.1,4.8,6.5,1.7-5.5,5.7-10.3,10.9-12.8"/><path class="cls-1" d="m44.6,184c1.5.8,1.7,1.2,2.7,2.6.8-3.7.7-6.4-1.8-9.4"/><path class="cls-1" d="m82.2,188.2h0"/><path class="cls-1" d="m85.7,182.7c.8-2.3-2-4.6-4.1-3.7,1.7-3.9-4.8-6.1-5.5-1.8-3.3-3-6.4,3-2.3,4.2-1.6.5-2.1,3.7-1,5,1.6,1.9,4.7-.4,4.7-.4-.1.4,2.6,4.9,4.7,2.1.8-1.1,1.1-2.8.4-3.4,1.4.2,2.7-.8,3.1-2.1Z"/><path class="cls-1" d="m90.1,187.8c-2-1-1.8-5-4.2-5.1"/><path class="cls-1" d="m82.2,188.2c3.4,3.8,4.4-2.5,7.9-.4"/><path class="cls-1" d="m81.3,165.1c1.9.6,5.3,3.9,4.5,3.5-2.2,1.3-3.2,4.9-2.4,7.5,1.2-1.2,2.7-2,4.3-2.2,1.1,2.6,1.6,3.3,3.8,4.4"/><path class="cls-1" d="m85.8,164.3c-1.5-.2-3.1.1-4.5.9"/><path class="cls-1" d="m88.1,164.5s-1.3-.1-2.3-.2"/><path class="cls-1" d="m70.2,110.2c8.4,9,10.7,21.1,9.7,33.3,0,1,1.4,1.9,2.4,1.6,4.9-12.8,1-32.3-7.3-44t0,0"/><rect class="cls-12" x="109.8" y="75.2" width="20.8" height="20.8" transform="translate(-25.5 61.8) rotate(-26.2)"/><polygon class="cls-11" points="33.7 1 44.4 18.8 26.6 29.6 15.9 11.7 33.7 1"/><polygon class="cls-4" points="15.9 11.7 26.6 29.6 44.4 18.8 33.7 1 15.9 11.7"/><rect class="cls-4" x="109.8" y="75.2" width="20.8" height="20.8" transform="translate(-25.5 61.8) rotate(-26.2)"/><rect class="cls-5" x="28.1" y="148.3" width="20.8" height="20.8" transform="translate(-124.5 168.1) rotate(-79.7)"/></svg>