<?xml version="1.0" encoding="UTF-8"?><svg id="Layer_1" xmlns="http://www.w3.org/2000/svg" width="150" height="196" viewBox="0 0 150 196"><defs><style>.cls-1,.cls-2,.cls-3{stroke-linecap:round;}.cls-1,.cls-2,.cls-3,.cls-4{stroke:#000;}.cls-1,.cls-2,.cls-3,.cls-4,.cls-5{fill:none;}.cls-1,.cls-3{stroke-linejoin:round;}.cls-2,.cls-6,.cls-4,.cls-5{stroke-miterlimit:10;}.cls-6,.cls-5{stroke:#fff;}.cls-6,.cls-7{fill:#5b2ac2;}.cls-3{stroke-width:.5px;}.cls-8,.cls-7,.cls-9,.cls-10,.cls-11,.cls-12,.cls-13,.cls-14,.cls-15,.cls-16,.cls-17,.cls-18{stroke-width:0px;}.cls-9{fill:#25190a;}.cls-10{fill:#cb302e;}.cls-11{fill:#dca16f;}.cls-12{fill:#cdb65a;}.cls-13{fill:#b52d00;}.cls-14{fill:#332921;}.cls-15{fill:#00a553;}.cls-16{fill:#fff;}.cls-17{fill:#ffd351;}.cls-18{fill:#0047fd;}</style></defs><path class="cls-11" d="m142.9,141.5c-4.3-1.5-9.5.2-13,3-2.6-1.1-6.9.9-7,3.9-.6,0-1.4.5-2,1.1-1.7-.4-3.6-.6-5.2-.7-1.4-2.7-4.5-11.4-5.8-14.6-4.6-10.3-3.3-20.6-15.4-22.9,3.3,3,4.7,12.3,5.3,16.5,0,0,2.8.6,3.3,1.4h0c2,10.5-4,21.9,3.4,31.3,2.4,9.5,10.4,4,16.2,1.7-1.4,5.3,7.4,4.7,5.2-.6,0,0,0,0,0,0h0c1-.3,1.8-1,2.3-1.9,2.1,1.7,5.8,1.8,6.2-1.5,1.2-.1,2.6.6,3.6-.3,1.6-2.4,4-8.8-1.5-6.4h0c-2.3.5-4.8-1.1-3.3-3.4,1.8-2.7,6.5-3.6,7.5-6.4Z"/><path class="cls-12" d="m103.8,167.8c1.6,7.2,3.8,14.9,4.9,20.6-15.2,6-34.2,4.7-49.9,0,1.4-2.5,2.4-13.2,2.8-18.5,15.4,3.5,28.9,2.4,42.3-2.1Z"/><path class="cls-9" d="m103.8,167.8c-13.4,4.5-26.9,5.6-42.3,2.1.1-1.8.2-3.5.3-5,9,3.7,31.3,3,41.3-.7.2,1.2.5,2.4.7,3.6Z"/><path class="cls-10" d="m103.5,135.5c0,3.2-.2,6.5-.6,10.7-.8-3.7-3.3-6.9-5.9-9.9,0,0,0,0,0,0h0c-2-2.2-4.1-4.3-5.8-5.9,5.5,0,12-.3,12.3,5.1Z"/><path class="cls-9" d="m103.1,129.1c.2,2.2.4,4.2.4,6.3-.3-5.4-6.8-5.2-12.3-5.1,0,0,0,0-.1-.1,0,0,0,0,0,.1-15.3,1.5-23.3-5.2-33.1,13h0c1.2-3.8,2.4-7.5,3.6-10.6v-.2c1.8-2.1,1.5-2.4,4-3.7-.3-5.4-2.5-15-6.7-16.4,1.3-.8,2.7-1.4,4.4-1.8,4.1,1.5,6.3,13.4,7.1,16.2,1.2.2,23.7-.8,25.2-1.1.3-3.2-2-14.1-5.8-15.4,8.4-.7,9,11.6,10.1,17.5,0,0,2.8.6,3.3,1.4h0Z"/><path class="cls-10" d="m103,164.2c-2.3.9-5.7,1.9-10.8,2.4,0,0,0-.2,0-.2h0c3.8-3.6,7-7.9,9.6-12.4,0,0-.2-.3-.2-.3h0v-.2c.2,0,.3.2.4.2-.2,2.9.2,6.6,1,10.6Z"/><path class="cls-16" d="m102.9,146.1c-.2,2.2-.6,4.9-.9,7.4-1.5-.9-5.1-5-6.8-6.3,2.4-1.4,4.4-2.9,6.3-4.8.7,1.3,1.2,2.5,1.4,3.7Z"/><path class="cls-16" d="m101.6,153.7l.2.3c-1.1,1.9-2.3,3.7-3.6,5.5,0,0-.2-.1-.2-.1-2.4-1.4-4.6-2.8-7-4.1,0,0,0-.1.1-.2,3.6-.4,6.9-.9,10.5-1.3h0Z"/><path class="cls-10" d="m101.7,153.4v.2c-3.7.4-7,.9-10.6,1.3,1.6-2.7,3-5.6,3.9-7.6,0,0,.2,0,.2,0,1.5,1.2,5.3,5.2,6.5,6.1Z"/><path class="cls-16" d="m101.5,142.4h0c0,0-.2-.3-.2-.3-3.9-.5-7.4-.7-11.3-1.3,2.8-1.2,5.1-3.3,7.1-4.6,1.7,2,3.3,4.1,4.5,6.2Z"/><path class="cls-10" d="m90,141s0,0,0,0c0,0,0,0,0,0,3.9.5,7.4.7,11.3,1.3l.2.4c-1.9,2-3.9,3.3-6.2,4.8,0,0-.2,0-.2,0,0-.5-2.6-3.6-5.1-6.3Z"/><path class="cls-16" d="m92.2,166.3s0,0,0,0c-3.2-3.9-2.9-3.3-4.8-6,0,0,0,0,0,0,3.5-.3,7-.6,10.6-1,0,0,.2.1.2.1-1.8,2.5-3.8,4.8-6,6.9Z"/><path class="cls-17" d="m97.1,136.2s0,0,0,0c0,0,0,0,0,0h0Z"/><path class="cls-10" d="m97,136.2s0,0,0,0c-2,1.3-4.4,3.4-7.1,4.6,0,0,0,0,0,0-2-2.2-4-4.2-4.3-4.2,0,0,0,0,0,0,3.6.2,7.8-.2,11.3-.4Z"/><path class="cls-9" d="m95,147.3c-1,2-2.4,4.9-3.9,7.6-.1,0-.2,0-.3,0-1.5-1.6-2.9-3.6-4.1-5.8,1.2-2.6,2.2-5.3,3.2-8.2,0,0,0,0,.1,0,2.5,2.7,5.1,5.9,5.1,6.3Z"/><path class="cls-17" d="m92.2,166.3s0,0,0,0c0,0,0,0,0,0Z"/><path class="cls-10" d="m92.2,166.6h0c-3,.4-6.4.6-9.8.7h0c1.7-1.9,4.7-6.1,5-6.9,1.9,2.7,1.6,2.2,4.8,6,0,0,0,0,0,0h0v.2Z"/><path class="cls-10" d="m91,155.1c2.4,1.4,4.6,2.8,7,4.1-3.6.4-7.1.7-10.6,1,1.2-1.4,2.4-3.2,3.6-5.1Z"/><path class="cls-16" d="m91.2,130.4c1.7,1.6,3.8,3.6,5.8,5.9-3.5.2-7.7.6-11.3.4,1.9-2,3.9-3.9,5.3-6.2h.2Z"/><path class="cls-16" d="m91.2,130.4h-.2s0,0,0-.1c0,0,0,0,.1.1Z"/><path class="cls-17" d="m91.1,154.9c0,0,0,.1-.1.2,0,0,0,0,0,0,0,0-.2,0-.2-.1.1,0,.2,0,.3,0Z"/><path class="cls-10" d="m79.6,130.9l-.7-.3c4,0,7.6-.2,12.2-.2-1.5,2.3-3.4,4.2-5.3,6.2,0,0-.1,0-.2,0-2.2-1.8-4.1-3.5-6-5.7Z"/><path class="cls-9" d="m83.4,155.6c2.4-.4,5.2-.6,7.6-.5-1.1,1.9-2.3,3.8-3.6,5.1,0,0,0,0-.1,0-1.3-1.2-2.8-2.8-4.3-4.4.1,0,.2-.2.3-.2Z"/><path class="cls-8" d="m90.8,72.3c1.6,4-1,5-2.5,1-1.6-4,1-4.9,2.5-1Z"/><path class="cls-17" d="m90.8,155s0,0,0,0c-.1,0-.1-.1,0,0Z"/><path class="cls-16" d="m90.8,155c-.2,0-.2,0,0,0-2.4.4-4.9.1-7.3.6,1.2-2.2,2.3-4.3,3.2-6.5,1.3,2.2,2.6,4.2,4.1,5.8Z"/><path class="cls-17" d="m89.9,140.9s0,0,0,0c0,0,0,0-.1,0,0,0,0,0,0-.1Z"/><path class="cls-9" d="m89.9,140.9s0,0,0,.1c-1.1.1-4.9.4-7.5.6,0,0,0,0,0,0,1.7-2.6,3.3-4.9,3.3-4.9.3,0,2.2,2,4.3,4.2Z"/><path class="cls-16" d="m90.3,88.3c-.5,6.7-11.9,6.9-15.8,1.4,4,1.5,11.4.6,15.8-1.4Z"/><path class="cls-17" d="m87.5,160.3s0,0,0,0c0,0,0,0,0,0,0,0,0,0,.1,0Z"/><path class="cls-16" d="m89.9,141c-1,2.9-2,5.6-3.2,8.2-1.5-2.6-2.9-5.4-4.3-7.7,2.6-.2,6.4-.4,7.5-.6Z"/><path class="cls-16" d="m87.3,160.3s0,0,0,0c-.3.9-3.3,5-5,6.9-2.7-1.7-5.3-3.7-7.7-5.7,4.3-.5,8.5-.8,12.7-1.2Z"/><path class="cls-9" d="m82.4,141.5c1.4,2.3,2.8,5.1,4.3,7.7-1,2.1-2,4.3-3.2,6.5-.2,0-.3,0-.5,0-2.2-2.5-4.2-5.1-5.4-6.6,0-.1.1-.2.2-.3,0,0,0,0,0,0,.7-1.3,2.8-4.5,4.7-7.2h0Z"/><path class="cls-17" d="m85.7,136.6s0,0,0,0c0,0,0,0,0,0,0,0,.1,0,.2,0Z"/><path class="cls-10" d="m85.5,136.6s0,0,0,0c0,0-1.5,2.2-3.3,4.9,0,0-.1-.2-.2-.3-3-1.7-5.5-3.4-8.5-5.1,4,.3,7.8,0,11.8.4Z"/><path class="cls-16" d="m85.5,136.6c-4-.4-7.8,0-11.8-.4,1.5-1.8,3.2-3.7,5.1-5.6,2.5,1.7,4.2,4.2,6.7,6Z"/><path class="cls-17" d="m83.4,155.6h0c0,0,0,0,0,0,0,0,0,0,0,0Z"/><path class="cls-17" d="m83.4,155.6c-.1,0-.2.2-.3.2,0,0,0-.1-.1-.2.2,0,.3,0,.5,0Z"/><path class="cls-10" d="m83.1,155.9c1.4,1.6,2.9,3.2,4.3,4.4-4.2.4-8.4.7-12.6,1.2,3-1.9,5.4-3.7,8.4-5.6Z"/><path class="cls-16" d="m82.9,155.7c0,0,0,.1.1.2-3,1.9-5.4,3.6-8.4,5.6-1.9-1.6-3.7-3.4-5.4-5.3h0c4.4-.1,9.3,0,13.7-.5Z"/><path class="cls-10" d="m64.2,150.1c5,6.8,11.1,12.6,18.2,17.1h0c-8.1.3-16.5-.4-20.6-2.3.4-6.8-1.6-15.5-3.8-21.6,8.1-13.3,10.1-12.7,20.9-12.8-6.1,6.1-10.3,12-14.6,19.5Z"/><path class="cls-17" d="m82.4,141.5h0s0,0,0,0c0,0,0,0,0,0Z"/><path class="cls-10" d="m82.3,141.5c-1.8,2.8-3.9,5.9-4.7,7.2-1.9-1.2-5.5-4.5-8.1-7,4,.2,8.6,0,12.6-.6,0,0,.1.2.2.3,0,0,0,0,0,0Z"/><path class="cls-10" d="m77.5,149.1c1.2,1.6,3.3,4.2,5.4,6.6-4.4.6-9.3.4-13.7.5,3.1-2.7,4.8-3.6,8.3-7.2,0,0,0,0,0,0Z"/><path class="cls-16" d="m81.7,141c.2,0,.3.2.5.3-4,.5-8.6.8-12.7.6,0,0-.1,0-.1,0,1.3-1.9,2.7-3.8,4.3-5.6,2.9,1.6,5.2,3.2,8,4.8Z"/><path class="cls-17" d="m77.7,148.8c0,0-.1.1-.2.2,0,0,0-.1.1-.2,0,0,0,0,0,0Z"/><path class="cls-16" d="m77.7,148.8c-3.3,3.7-5.4,4.7-8.5,7.4-1.8-1.9-3.5-3.9-5-6.1,1.8-3.1,3.5-5.8,5.2-8.4,0,0,0,0,.1,0h0c2.7,2.4,6.2,5.7,8.1,7Z"/><path class="cls-14" d="m96.9,62.6c-3.6-12.5-14.8-24-30.6-18-13.8-2-26.5,12.1-26.1,25.7-.2,7.2,3.6,19.9,10.9,23.7-1.6-2.4-.1-7.6,4-5.3-3.6-14.2-2.8-33.3,14.9-35.4,4.6.8,7.4-1.7,11.9-1.5,8.3,1,11.4,9.2,12.3,16.2,0,5.7,1.9,5.4,3.4,14h.1c.7-2.1,1.5-12.8-.8-19.4Z"/><path class="cls-8" d="m70.9,77.5c1.8,4.4-1.2,5.6-2.9,1.2-1.7-4.4,1.2-5.5,2.9-1.2Z"/><path class="cls-11" d="m89.6,110.3c-2.2-.4-3.9-.5-4.3-.4,0-1.7.7-6.6.7-6.6,18.6-10.2,10-23.1,8.2-35.2-.3-2.7-1-5.6-2.2-8.2-3-7.8-11.4-9.4-18.6-6.3-9-1.6-17.8,6-19.6,14.9-2,7.3.6,12.5,1.3,20.4-4.1-2.3-5.6,2.9-4,5.3,1,3,7,8.1,9.8,4.8,2.7.9,6,3.7,6.4,11.2-1.4,0-2.8.3-4,.6,4.1,1.5,6.3,13.4,7.1,16.2,1.2.2,23.7-.8,25.2-1.1.3-3.2-2-14.1-5.8-15.4Zm-18.9-28.8c-1.9.8-4.6-6.1-2.7-6.7,1.9-.9,4.6,6.1,2.7,6.7Zm20-5.6c-1.6.7-4-5.6-2.4-6.1,1.6-.7,4,5.6,2.4,6.1Zm-16.3,13.8c4,1.5,11.4.6,15.8-1.4-.5,6.7-11.9,6.9-15.8,1.4Z"/><path class="cls-14" d="m58.8,112.5c-1.6,1-3,2.1-4.2,3.4-1.8-5.6-1.8-11.7,0-17.3,1.6,1.2,5.4,2,6.1.2,2.7.9,6,3.7,6.4,11.2-3,.2-6,1-8.4,2.5Z"/><path class="cls-11" d="m65.5,128.8c-.3-5.4-2.5-15-6.7-16.4-8.3,4.3-10.1,15.6-11.6,23.5-.2,1.1-8.2,27.4-7.2,27.7-6.9,1.2-15.1,11.8-1.7,6.3,2.6,2.4-1,12.6,6.3,8.2,1,2.3,4.2,1.9,5.9.5,10.1,5.7,10.5-10.7,5.3-4.9-.4,1-1.3,2.4-2.5,1.6.6-1.3,1.3-3.4,0-4.5-.2-.6-.5-1.1-.7-1.7.4-9.8,4.9-25.1,9.1-36.5v-.2c1.8-2.1,1.5-2.4,4-3.7Z"/><path class="cls-2" d="m67.2,110c-.4-7.4-3.7-10.3-6.3-11.1"/><path class="cls-4" d="m97.6,82.1c1.2,6.5-.8,15.8-11.6,21.1,0,0-.7,4.9-.7,6.6"/><path class="cls-2" d="m94.2,68c0,5.7,1.9,5.4,3.4,14"/><path class="cls-1" d="m88.3,73.3c1.5,4,4.1,3,2.5-1-1.5-4-4.1-3-2.5,1Z"/><path class="cls-1" d="m67.9,78.7c1.7,4.4,4.7,3.2,2.9-1.2-1.7-4.4-4.7-3.2-2.9,1.2Z"/><path class="cls-1" d="m90.3,88.3c-4.4,2-11.8,2.9-15.8,1.4,4,5.5,15.3,5.3,15.8-1.4Z"/><path class="cls-1" d="m55.1,88.8c-7.6-2.6-4.4,7.6-.4,9.8,1.8,1.4,6.7,2.2,6.2-.8"/><path class="cls-1" d="m94.2,68c-.9-11.4-9.1-19.8-20.8-14.5-9-1.6-17.8,6-19.6,14.9-2,7.3.6,12.5,1.3,20.4"/><path class="cls-2" d="m52.8,164.7c.9-6.5,5.4-23.4,8.8-32"/><line class="cls-2" x1="47.2" y1="136" x2="40.2" y2="160.9"/><path class="cls-2" d="m58.8,112.5c2.4-1.5,5.4-2.3,8.4-2.5"/><path class="cls-2" d="m47.2,136c1.6-8,3.3-19.2,11.6-23.5"/><path class="cls-2" d="m109.9,134.1c1.4,3.4,4.4,12.1,6,14.9"/><path class="cls-2" d="m109.9,134.1c-5.4-16.4-5.8-23.7-24.6-24.3"/><path class="cls-2" d="m106.6,160.5c2.4,9.5,10.4,4,16.2,1.7"/><path class="cls-2" d="m120.9,149.5c-7.4-2.7-18.6,2.1-14.4,11"/><path class="cls-2" d="m52.5,169.2c.2-1.9.1-3.5.3-4.5"/><path class="cls-2" d="m40.2,160.9c-.2,1-.2,1.9-.2,2.8"/><path class="cls-2" d="m108.6,188.4c-15.2,6-34.2,4.7-49.9,0,3.6-12,4.5-32.5-.7-45.1"/><path class="cls-2" d="m102.2,152c-1.3,11.1,4.7,26.1,6.4,36.4"/><path class="cls-2" d="m102.9,146.2c-.2,1.8-.4,3.7-.7,5.8"/><path class="cls-2" d="m103.5,135.5c0,3.2-.2,6.5-.6,10.7"/><path class="cls-4" d="m103.1,129.1c.2,2.2.4,4.2.4,6.3"/><path class="cls-2" d="m103.1,128.5c0,.2,0,.4,0,.7"/><path class="cls-2" d="m102.2,152c1.4,3.2,2.9,5.3,4.3,8.5"/><line class="cls-2" x1="102.2" y1="152" x2="102.2" y2="152"/><path class="cls-2" d="m83.3,83.7c.6-2.8,4.5-6.8,5.4-1.8"/><line class="cls-4" x1="138.7" y1="151.3" x2="138.7" y2="151.4"/><path class="cls-4" d="m123,149.8c-1-3.7,3.7-6.6,6.9-5.3,3.5-2.8,8.7-4.4,13-3-1,2.8-5.8,3.7-7.5,6.4-1.6,2.3,1,3.9,3.3,3.4"/><path class="cls-4" d="m130.6,154.6c1.4,2.4,3.2-1.8,4.9-1.2,3.3,3.8-.3,10.1-5.4,6"/><path class="cls-4" d="m122.9,148.4c-5.5,1.4-5.9,13,0,13.5"/><path class="cls-4" d="m136.2,153.9c.8-1.9,4.2-4.4,5.9-2.2.3,2-1.2,4.2-2,6-1,.9-2.4.2-3.5.3"/><path class="cls-4" d="m128,161.5c-2.1-8-6.8-.7-4.9,3.5,2.7,2,6.3.2,4.9-3.5Z"/><path class="cls-4" d="m128,161.4c1-.3,1.9-1.1,2.4-2.1"/><path class="cls-4" d="m53.2,171c-1.1-4.3-4.3-5.2-8-6.2-6.9-5.8-23.6,12-6.9,5.3,2.5,2.2-.5,7.5,2.9,9.1,3.6.7,6.5-4.1,7.8-7,.1-4.4-5.2-1.1-6.6.9"/><path class="cls-4" d="m44.5,178c2,4.2,7.5.5,8.7-2.6,2.2-3.8-1.2-6.9-4.2-3.3"/><path class="cls-4" d="m50.2,178.5c5.5,5.3,13.1-4.7,6.7-5.9-1.5.5-1.6,3.8-3.6,2.8"/><path class="cls-4" d="m66.7,44.6c2,.6,6.8,6.5,6.8,8.9"/><path class="cls-1" d="m68.3,68.4c-2-.3-4.1,1-4.8,2.9"/><path class="cls-1" d="m83.3,65.7c1.3-1.8,3.9-2.4,5.8-1.5"/><path class="cls-4" d="m97.7,82c4.3-16.2-7.1-46.5-31.4-37.4-13.8-2-26.5,12.1-26.1,25.7-.2,7.2,3.6,19.9,10.9,23.7"/><path class="cls-4" d="m63.2,110.6c4.1,1.4,6.4,13.4,7.1,16.2,1.2.2,23.7-.8,25.2-1.1.3-3.2-2-14.2-5.9-15.5"/><path class="cls-4" d="m94.3,111.1c3.5,3,4.8,12.4,5.5,16.7,0,0,2.8.6,3.3,1.4"/><path class="cls-4" d="m78.9,130.6c6.5,1,24.2-3.9,24.8,5.3"/><path class="cls-4" d="m58,143.3c8.1-13.3,10.1-12.7,20.9-12.8"/><path class="cls-4" d="m58.8,112.5c4.2,1.4,6.4,11,6.7,16.4-2.5,1.3-2.2,1.6-4,3.7"/><line class="cls-3" x1="78.9" y1="130.6" x2="79.6" y2="130.9"/><path class="cls-3" d="m61.5,164.8c8.9,3.8,31.2,3.2,41.1-.5"/><path class="cls-3" d="m61.7,169.9c15.2,3.5,28.5,2.4,41.7-2"/><path class="cls-3" d="m91,155.1c1.6-2.7,3-5.7,4-7.8.2-.6-8.3-10.3-9.4-10.6,0,0-1.5,2.2-3.3,4.9,0,0,0,0,0,0-2,3-4,5.9-4.8,7.6,2.2,2.8,6.7,8.5,9.9,11.2,1.3-1.4,2.5-3.2,3.6-5.2"/><path class="cls-3" d="m78.9,130.6c-6.1,6.1-10.3,12-14.7,19.6"/><path class="cls-3" d="m91.1,130.3c4.3,4.1,10.3,9.8,11.8,15.9"/><path class="cls-3" d="m64.1,150c5,6.8,11.1,12.6,18.3,17.2"/><path class="cls-3" d="m92.2,166.4s0,0,0,0"/><path class="cls-3" d="m101.7,154c-2.6,4.5-5.8,8.8-9.6,12.4,0,0,0,0,0,0h0"/><path class="cls-3" d="m85.5,136.6c-2.2-1.8-4.1-3.5-6-5.7h0"/><path class="cls-3" d="m91.1,130.3c-1.5,2.4-3.5,4.3-5.5,6.4,0,0,0,0,0,0"/><path class="cls-3" d="m69.2,156.2c3.1-2.7,5-3.8,8.5-7.4-2-1.2-5.5-4.5-8.2-7"/><path class="cls-3" d="m101.9,153.6c-1.4-1-5.1-5-6.7-6.3,2.3-1.4,4.3-2.8,6.2-4.8"/><path class="cls-3" d="m92.2,166.4c-3.2-3.9-2.9-3.3-4.8-6-.3.9-3.3,5-5,6.9"/><path class="cls-3" d="m69.6,141.8c4,.2,8.6,0,12.7-.6-3-1.7-5.5-3.4-8.5-5.1,7.7.3,15.7.7,23.4,0-2,1.3-4.4,3.4-7.2,4.6,3.9.5,7.4.7,11.3,1.3"/><path class="cls-3" d="m74.7,161.4c7.9-.8,15.5-1.4,23.3-2.2-2.4-1.4-4.6-2.8-7-4.1,0,0,0,0,0,0,0,0-.2,0-.2-.1,3.7-.5,7.1-.9,10.8-1.3"/><path class="cls-3" d="m69.2,156.2c4.5-.1,9.6,0,14.2-.6-3.1,2-5.6,3.8-8.7,5.8"/><path class="cls-3" d="m82.2,141.5c2.9-.2,6.6-.4,8-.6"/><path class="cls-3" d="m90.8,155s0,0,0,0c-.1,0-.1-.1,0,0-3.4-3.6-5.9-9.3-8.4-13.5,0,0,0,0,0,0,0,0-.1-.2-.2-.3"/><path class="cls-3" d="m83.4,155.6c2.3-.5,4.9-.3,7.3-.6"/><path class="cls-3" d="m83.4,155.7s0,0,0,0"/><line class="cls-3" x1="83.4" y1="155.6" x2="83.4" y2="155.6"/><line class="cls-3" x1="83.4" y1="155.6" x2="83.4" y2="155.6"/><path class="cls-3" d="m83.4,155.6s0,0,0,0"/><path class="cls-3" d="m89.9,140.9s0,0,0,0c-1.8,5.3-3.8,9.8-6.5,14.7"/><path class="cls-4" d="m54.7,98.4c-1.9,5.7-1.9,12.1,0,17.8"/><path class="cls-1" d="m73.7,53.6c-2.3,9.7-10.6,17.7-20.3,19.6"/><path class="cls-1" d="m73.9,53.7c5.3,5.3,13,9.2,19.6,11"/><path class="cls-1" d="m70,53.5c-1.5,7.8-8.4,14.1-16.3,14.9"/><path class="cls-1" d="m77.1,52.6c3.7,4.2,9,6.9,14.5,7.4"/><path class="cls-1" d="m65.6,54.5c-1.8,4.7-4.8,7.3-10.2,9.3"/><path class="cls-1" d="m80.4,51.7c2.1,2.2,6.8,4.6,9.7,4.8"/><rect class="cls-7" x="120.7" y="34.1" width="24" height="24" transform="translate(3.1 100.3) rotate(-41.9)"/><rect class="cls-18" x="120.7" y="101.7" width="24" height="24" transform="translate(-36.5 70.3) rotate(-26.2)"/><rect class="cls-15" x="59.7" y="2.3" width="24" height="24" transform="translate(-1.2 8.3) rotate(-6.6)"/><polygon class="cls-13" points="23.9 48.3 28.4 71.9 4.8 76.4 .4 52.8 23.9 48.3"/><rect class="cls-5" x="59.7" y="2.3" width="24" height="24" transform="translate(-1.2 8.2) rotate(-6.5)"/><rect class="cls-5" x="120.7" y="101.7" width="24" height="24" transform="translate(-36.5 70.1) rotate(-26.2)"/><polygon class="cls-5" points="28.4 71.9 4.8 76.4 .4 52.8 23.9 48.3 28.4 71.9"/><rect class="cls-5" x="120.7" y="34.1" width="24" height="24" transform="translate(3.1 100.2) rotate(-41.8)"/><rect class="cls-6" x="43.1" y="148.3" width="20.8" height="20.8" transform="translate(-112.2 182.8) rotate(-79.7)"/></svg>