<?xml version="1.0" encoding="UTF-8"?><svg id="Layer_1" xmlns="http://www.w3.org/2000/svg" width="150" height="196" viewBox="0 0 150 196"><defs><style>.cls-1{stroke-linejoin:round;}.cls-1,.cls-2{stroke-linecap:round;}.cls-1,.cls-2,.cls-3{stroke:#000;}.cls-1,.cls-2,.cls-3,.cls-4{fill:none;}.cls-2,.cls-5,.cls-3,.cls-4{stroke-miterlimit:10;}.cls-5{fill:#b52d00;}.cls-5,.cls-4{stroke:#fff;}.cls-6,.cls-7,.cls-8,.cls-9,.cls-10,.cls-11,.cls-12,.cls-13,.cls-14,.cls-15{stroke-width:0px;}.cls-7{fill:#5b2ac2;}.cls-8{fill:#19a7d4;}.cls-9{fill:#0690b6;}.cls-10{fill:#1e1e1e;}.cls-11{fill:#1185b1;}.cls-12{fill:#805530;}.cls-13{fill:#00a553;}.cls-14{fill:#028e44;}.cls-15{fill:#0047fd;}</style></defs><path class="cls-11" d="m129.6,160.7c.3,4-2.3,11.2-7.2,10.3-5.5-3.4-4.7-13.1-3.8-17.9-.5,3.8-.2,8.6,3.9,9-1.7,5.6,7.4,5.3,5.3-.4.7-.2,1.3-.6,1.7-1.1Z"/><path class="cls-14" d="m107.4,111.2c4.4,2.2,9.1,20.1,8.1,21.8-3.4,4.5-6.9,4.8-9.1,13.8-2.3,14.5-22,18.9-34.1,15.4-20.3-5.6-12.5-18.8-31.7-24.5-1.9-.8-3.5-1.6-3.8-2.2-.7-1.6,4.9-15.9,6.6-17.9,3.7-4.1,10.4-7.8,15.5-9.6,1.7,5.6,15.8,9.5,25,8.9,10.4-1.1,10.4-5.9,13.3-9.9,3.4.9,7.4,2.9,10.1,4.3Z"/><path class="cls-8" d="m115.6,144.9c-.7-2.8-1.3-5.9-2.1-9.7-7.1,3.8-6.8,20.8-16.6,24.4-12.7,6.4-32.9,4.3-40.3-8.7,1.6,11,3.5,30.7.9,40.9,15.9,4.8,34.2,4.5,49.6-1.5.4-9.8-1.2-20.8-1.6-30.1h0c2.2,3.7,15.7,10.2,16.9,10.8-5.6-3.6-4.7-13.4-3.6-18.5.6-1.9,2.4-3.9,3.9-4.1,0-1.1.4-1.9,1.6-2.8-2.1-.9-5.7-1.2-8.7-.7Z"/><path class="cls-12" d="m58.3,90.4c-6.2,4.5-13.1-13.9-3-10.4-4.3-16,3.5-26.2,18.3-28,16.6-4.2,20.7,11.2,21.9,22.3,5.9,16.3-4.4,21.9-8.8,29.4-1.3,3-18,4.9-20.1,1.4-.5-4.3-2.8-11-8.3-14.7Zm31.9-27.3c0-2.6-5.2-3.2-7.4-2.1-2,.8-1.9,3.5.4,3.4,1.5-.3,6-.8,6.9-1.2Zm-1,11.8c1.7-.5-.8-7-2.4-6.2-1.7.5.8,6.9,2.4,6.2Zm-18.8,5.3c2-.7-.8-7.7-2.7-6.8-2,.7.8,7.7,2.7,6.8Zm-1-12.9c4.9-5.7-9-2.2-9,2.1.3,2,4.5-1.5,5.8-1.4.7-.2,2.5-.4,3.1-.7Z"/><path class="cls-8" d="m93.5,57.5c2.4,7.2,3,14.7,2,16.8-1.3-11.1-5.4-26.4-21.9-22.3-14.8,1.8-22.6,12-18.3,28-10.1-3.5-3.2,14.9,3,10.4,3.8,2.8,5.7,6,6.8,8.7-21.5,0-28.2-31.7-20.9-42.8,13.6-22,40.6-18.7,49.3,1.2Z"/><path class="cls-8" d="m96.4,108.3c-3,13.7-32.7,8.5-37.1.5,2.1-.7,3.8-.9,5.1-1.2l2.1-2.5c2.1,3.4,18.8,1.6,20.1-1.4,1.8,2.4,3.9,2.8,9.7,4.6Z"/><path class="cls-10" d="m90.3,62.3c.4.7-.4,1.2-1,1.1-14.1,3.9-6.6-7.2,1-1.1Z"/><path class="cls-6" d="m89.3,71.3c1.6,4-1,5-2.5,1-1.6-4,1-5,2.5-1Z"/><path class="cls-6" d="m70.5,76.2c1.8,4.4-1.3,5.6-3,1.2-1.8-4.4,1.3-5.6,3-1.2Z"/><path class="cls-10" d="m70.5,65.8c0,2-2.8,1.9-4.2,2.3-1.3,0-5.5,3.4-5.8,1.4,0-2.7,9-7.7,10-3.7Z"/><path class="cls-11" d="m66.6,105.1l-2.1,2.5c-1.3.3-3,.5-5.1,1.2-.1-.3-.2-.5-.3-.8-3.4,1.1-7.4,3.2-10.7,5.5.3-7.1,4.2-10.7,8.8-16.1,2.3,1,5,1.6,7.9,1.8,1.1,3,1.2,5.4,1.5,5.9Z"/><path class="cls-8" d="m47.9,140.6c3.3,2.2,5.1,4.3,6.4,6.2-.4,1-2.9,18.3-2.9,23.2-1-3.6-4.6-3.9-7.5-4.9-2.6-1.7-6.1-1.3-8.8.2,2.7-10.1,5.1-18.7,5.6-27.6,2.9,1.2,6.4,2.5,7.2,3Z"/><path class="cls-9" d="m49.3,179.8c-4.2,10.2-17.8-.1-14.7-8.7.8-.2,1.5-.5,2.3-.7,2.6,2.4-.8,12.4,6.1,8.5.9,2.1,4.3,1.7,6,.5.1.1.3.2.4.3Z"/><path class="cls-12" d="m143,141.5c-4.3-1.5-9.6.2-13.2,3-2.7-1.1-7,1-7.1,3.9-5.4,1.2-6.1,13.1-.1,13.7-1.7,5.6,7.4,5.3,5.3-.4.7-.2,1.3-.6,1.7-1.1h0c.3-.3.5-.7.7-1.1,2,1.9,5.8,2,6.2-1.4,1.2-.1,2.6.6,3.6-.3,1.6-2.5,4.1-8.9-1.5-6.5h0c-2.3.5-4.9-1.1-3.3-3.5,1.8-2.7,6.6-3.6,7.7-6.5Z"/><path class="cls-12" d="m57.4,173.6c-2.7-2.7-2.9,3.6-5.4,2.3.6-1.4,1.3-3.5,0-4.6-1.1-4.4-4.3-5.3-8.1-6.3-7-5.9-24,12.1-7,5.4,2.6,2.4-.8,12.4,6.1,8.5.9,2.1,4.3,1.7,6,.5.1.1.3.2.4.3h0c3.7,2.9,10.9-1.7,8.1-6.2Z"/><path class="cls-2" d="m94.2,66.5c1,8,1.4,7.3,2.9,15.6,2.1,10.7-10.4,19-10.4,21.6-1.3,3-18,4.8-20.1,1.4-.5-4.3-2.8-11-8.3-14.7,0,0,0,0,0,0"/><path class="cls-2" d="m65.1,99.1c-21.5,0-28.2-31.7-20.9-42.8,18.6-30.3,56.9-10.3,51.3,18"/><path class="cls-1" d="m86.7,72.3c1.5,4,4.1,3,2.5-1-1.5-4-4.1-3-2.5,1Z"/><path class="cls-1" d="m67.5,77.4c1.7,4.5,4.8,3.3,3-1.2-1.7-4.4-4.8-3.2-3,1.2Z"/><path class="cls-2" d="m76,88.8c4.2,1.1,8.6.3,12.4-1.8"/><path class="cls-1" d="m55.3,80c-11.2-3.7-1.4,17.5,3.8,9.3"/><path class="cls-2" d="m94.2,66.5c-2.1-9.2-7.9-17.5-20.6-14.5-14.8,1.8-22.6,12-18.3,28"/><line class="cls-2" x1="40.7" y1="137.6" x2="39.4" y2="149.4"/><line class="cls-2" x1="66.6" y1="105.1" x2="64.4" y2="107.6"/><path class="cls-2" d="m113.5,135.2c.7,3.7,1.4,6.9,2.1,9.6"/><path class="cls-2" d="m86.7,103.7c1.8,2.4,3.9,2.8,9.7,4.6"/><path class="cls-2" d="m111.1,164.7c4.2,2.7,11,6.4,11.3,6.3"/><path class="cls-2" d="m124.3,145.6c-7.4-3.3-17,1.2-17.3,9.7-.9,3.7-.3,7.6,4.1,9.4"/><path class="cls-2" d="m51.4,170c0-4.9,2.5-22.1,2.9-23.2"/><path class="cls-2" d="m39.4,149.4c-.3,1.5-3.4,11.6-4.2,15.8"/><path class="cls-2" d="m111.1,164.7c-2.1-1.5-4.9-2.5-5.6-4.5"/><path class="cls-2" d="m107.1,190.3c-15.5,6.1-33.7,6.3-49.6,1.5,2.6-10.3.6-29.8-.9-40.9"/><path class="cls-2" d="m105,151.2c.4,14.4,2.4,24.8,2.1,39.1"/><path class="cls-2" d="m79.2,82.5c1.7-2.8,7.5-7.2,9.3-1.9"/><line class="cls-2" x1="136.5" y1="158.2" x2="136.5" y2="158.3"/><line class="cls-2" x1="127.8" y1="161.7" x2="127.9" y2="161.7"/><line class="cls-2" x1="122.7" y1="148.4" x2="122.7" y2="148.4"/><path class="cls-2" d="m122.8,149.9c0-.6,0-1,0-1.5,0-3,4.4-5,7.1-3.9,3.5-2.8,8.8-4.5,13.2-3-1,2.9-5.9,3.8-7.7,6.5-1.6,2.4,1,4,3.3,3.4"/><path class="cls-2" d="m130.5,154.8c1.5,2.4,3.2-1.9,5-1.2,3.3,3.6-.3,10.4-5.2,6"/><path class="cls-3" d="m118.6,153.1c-.5,3.8-.2,8.6,3.9,9"/><path class="cls-2" d="m122.7,148.4c-1.7.2-3.7,2.6-4.1,4.7"/><path class="cls-2" d="m136.2,154c.5-1.1,1.4-2,2.5-2.6h0c5.6-2.5,3,4,1.5,6.4-1,.9-2.4.2-3.6.3"/><path class="cls-2" d="m123.9,158.6c-1.3,1.7-1.9,4.7-1,6.7,1.4,1.2,4.9,1.2,5.2-1.1.4-2.1-1.5-8-4.2-5.6Z"/><path class="cls-2" d="m129.6,160.7c.3-.3.5-.7.7-1"/><path class="cls-2" d="m127.9,161.7c.6-.2,1.2-.6,1.7-1"/><path class="cls-2" d="m52,175.9s0,0,0,0"/><path class="cls-2" d="m52,171.4c-1.1-4.4-4.3-5.3-8.1-6.3-7-5.9-24,12.1-7,5.4,2.6,2.2-.5,7.6,3,9.2,3.7.7,6.6-4.2,7.9-7.1.1-4.5-5.3-1.1-6.7.9"/><path class="cls-2" d="m42.9,178.9c2.3,3.7,7.8,0,9.1-3,2.2-3.9-1-7-4.3-3.4"/><path class="cls-2" d="m49.3,179.8c5.3,4,12.7-5.7,6.4-6.7-1.5.5-1.6,3.9-3.7,2.9"/><path class="cls-2" d="m48.9,179.4c.1.1.3.2.4.3"/><path class="cls-2" d="m59.1,108c1.7,5.6,15.8,9.5,25,8.9,10.4-1.1,10.4-5.9,13.3-9.9"/><path class="cls-2" d="m59.1,108c-5.1,1.7-11.8,5.5-15.5,9.6-1.7,2-7.3,16.2-6.6,17.9.2.6,1.8,1.4,3.8,2.2,19.1,5.7,11.4,18.9,31.7,24.5,12,3.5,31.7-.9,34.1-15.4,2.2-9,5.6-9.3,9.1-13.8,1-1.6-3.7-19.6-8.1-21.8-2.6-1.3-6.7-3.4-10.1-4.3"/><path class="cls-2" d="m64.4,107.6c-1.3.3-3,.5-5.1,1.2"/><path class="cls-2" d="m57.2,97.4c-4.6,5.4-8.5,9-8.8,16.1"/><path class="cls-3" d="m62.7,120.7c7.8,8.9,22.7,9.3,31,.9"/><path class="cls-3" d="m52.5,126.9c17.4,12.1,26.1,38.3,47.1,10.9"/><path class="cls-3" d="m118.8,152.5c-1.1,5.1-2,14.9,3.6,18.5,4.9.9,7.4-6.3,7.2-10.3"/><path class="cls-2" d="m34.6,171.1c-3.2,8.5,10.7,18.7,14.7,8.6"/><path class="cls-1" d="m70.5,65.8c0,2-2.8,1.9-4.2,2.3-1.3,0-5.5,3.4-5.8,1.4,0-2.7,9-7.7,10-3.7Z"/><path class="cls-1" d="m82.8,60.9c-2,.8-1.9,3.5.5,3.4,1.5-.3,6-.8,6.9-1.2,0-2.6-5.2-3.2-7.4-2.1Z"/><rect class="cls-13" x="117" y="103.9" width="20.8" height="20.8" transform="translate(-37.4 67.9) rotate(-26.2)"/><rect class="cls-15" x="95.8" y="13.9" width="20.7" height="20.7" transform="translate(2.7 58.1) rotate(-31)"/><polygon class="cls-7" points="37.3 38.3 26.3 55.9 8.7 44.9 19.7 27.3 37.3 38.3"/><rect class="cls-4" x="95.8" y="13.9" width="20.7" height="20.7" transform="translate(2.7 58.1) rotate(-31)"/><rect class="cls-4" x="117" y="103.9" width="20.8" height="20.8" transform="translate(-37.4 67.9) rotate(-26.2)"/><polygon class="cls-4" points="37.3 38.3 26.3 55.9 8.7 44.9 19.7 27.3 37.3 38.3"/><rect class="cls-5" x="41.1" y="148.3" width="20.8" height="20.8" transform="translate(-113.9 180.9) rotate(-79.7)"/></svg>