<?xml version="1.0" encoding="UTF-8"?><svg id="Layer_1" xmlns="http://www.w3.org/2000/svg" width="150" height="196" viewBox="0 0 150 196"><defs><style>.cls-1{stroke-linecap:round;stroke-linejoin:round;stroke-width:1px;}.cls-1,.cls-2,.cls-3{fill:none;}.cls-1,.cls-3{stroke:#000;}.cls-4{fill:#b52d00;}.cls-4,.cls-2{stroke:#fff;}.cls-4,.cls-2,.cls-3{stroke-miterlimit:10;}.cls-5{fill:#5b2ac2;}.cls-5,.cls-6,.cls-7,.cls-8,.cls-9,.cls-10,.cls-11,.cls-12{stroke-width:0px;}.cls-6{fill:#967246;}.cls-7{fill:#e1c0a5;}.cls-8{fill:#00a553;}.cls-9{fill:#fff;}.cls-10{fill:#ffd204;}.cls-11{fill:#0047fd;}.cls-12{fill:#050504;}.cls-3{stroke-width:1px;}</style></defs><path class="cls-7" d="m66.9,115.6c0-2.1-1.5-7.9-1.8-8.3-3.8-1.1-7.6-4.3-7.9-4.5,3.3-2.3,7.2-4.3,8.9-4.8-16.3-7.5-19.3-23.1-19.3-23.1l-.3-.2c1.6-2.4,6.1-7.2,7.1-8.2-.6-2.7-.6-13.6-.6-13.6,0,0,2.7,7.2,4.3,12.4,11-4.2,21.9-4.7,30.8-4,1.3,9.5,6.9,8.8,8.3,15.2.2,1.5,5.3,21.1-14.5,29.8-2.3,2.2-.3,8,0,11.3h0c-.5,2.3-1.9,7-5.2,8.1-4.2.9-10-6.3-9.9-10.1Zm16.4-43.4c1.4-.5-.3-5-1.7-4.5-1.4.5.3,5,1.7,4.5Zm-6.8,17.7c6.2-.3,8.6-5.9,8.6-5.9-1.6-.2-16.9.6-18.4.9,0,0,3.6,5.2,9.8,4.9Zm-13.2-15.9c1.6-.5-.4-5.7-1.9-5.1-1.6.5.4,5.7,1.9,5.1Z"/><path class="cls-12" d="m83.5,69.5c1.1,2.9-1.1,3.7-2.1.8-1.1-2.9,1.1-3.7,2.1-.8Z"/><path class="cls-9" d="m85.2,83.9c-3.2,7.8-14.5,7.2-18.4.9,1.5-.3,16.8-1.1,18.4-.9Z"/><path class="cls-12" d="m63.7,70.9c1.2,3.3-1.2,4.2-2.4.9-1.3-3.3,1.2-4.2,2.4-.9Z"/><path class="cls-6" d="m97.1,73.8c-1.4-3.3-2.6-7.2-3.5-11.8,8.2,1.3,13.5,3.3,13.5,3.3-23.2-36.1-59.3-22.3-56.6-16.9l-2.2,3.3c-2.1,0-2.8.6-4.3,3.6-13.1,20.8-4,45,8.2,56.6.8.1,8.8.2,14.1-.4-.6-2.7-1.2-4.3-1.2-4.3-3.8-1.1-7.6-4.3-7.9-4.5,3.3-2.3,7.2-4.3,8.9-4.8-16.3-7.5-19.3-23.1-19.3-23.1l-.3-.2c1.6-2.4,6.1-7.2,7.1-8.2-.6-2.7-.6-13.6-.6-13.6,0,0,2.7,7.2,4.3,12.4,11-4.2,21.9-4.7,30.8-4,1.3,9.5,6.9,8.8,8.3,15.2.2,1.5,5.3,21.1-14.5,29.8-.7.2-1,1.4-1,3,11.5-2.7,23.8-8,31.2-18.2,0,0-9.1-3.5-15-17.3Z"/><path class="cls-10" d="m107.8,143.8c-1.9-4.1-9.4-24.2-9.4-24.2-3.4-1.1-13.1-.8-13.3-.8-1.3-2.4-3.1-4.4-3.6-4.3.2,1,.3,2,.5,3h0c-.5,2.3-1.9,7-5.2,8.1-4.2.9-10-6.3-9.9-10.1-.3,0-3-.3-3.7,2.9-.1.2-10.4-2.5-13.4-1-1.2,1.5-8.5,19.4-12.6,22.1,2.4,5.4,10.4,13.8,18.2,10.4,0,0,.2-1.2.6-3.1,3.8,10.3,8.3,28.9,2.8,40.4,17.6,10.8,27.7,10.3,42.3.2-.3.5-4.1-24.8-3.7-35,1-.1,3.8-1.3,3.7-1.4h0c.8-2.3,2.7-5.3,6.8-6.5l-.2-.9Z"/><path class="cls-7" d="m131.3,139.7c2.6-1.8,1.8-2.1,1.8-2.1,0,0-4.7-1.2-8.3,1.5-3.5,2.7-.9.4-.9.4-.7.4-8.2,1.1-8.1,3.7,0,0-.7.3-1.6.9-5.8-.9-12,2.5-13.1,7.1h0s-.9.5-2.5,1l.9,3.1s-.2,1.9,1,2.5c6.4,3.8,9.3,3.5,14.3-1.8.3.1.7.2,1,.2-1.1,4.2,5.8,4.1,4.3-.5.8,0,2.5-1.5,2.5-1.6,2.3,1.8,4.5,1.2,5-1.9h.2c.4,1,3.6.3,3.5-.6-.1-.8.9-2.9.9-2.9,1.6-2.1-2.4-3-3.7-1.4h-.1c-1.6-.3-2.5-1-2.5-1,.6-3.3,1.1-3.3,5.4-6.6Z"/><path class="cls-7" d="m52,173.6c-.7-.5-1.9.9-2.6,1.8-.3,0-.9-.2-1.2-.2,1.1-1,.9-4-1.5-3.4l-.7-.2s6.3-20.9,6.3-20.9c-4,.3-7.3-1.5-9.7-3.7l-1.8,7.7s-2.6,1.4-4.1,10.1c-5.9-1.3-16.7,11.9-2.6,5.3l1.5,3.9c-.2.6-1,3-.7,3.8.5,1.2,3.8,1.7,4.9.3h0c.6,1.6,4.3,3.1,5.7.8,3.3,3,10.3-.6,6.5-5.2Z"/><path class="cls-3" d="m42.7,147c-.1.5-2,8.3-2,8.5"/><path class="cls-3" d="m40.8,154.7s-2.6,1.4-4.1,10.1"/><path class="cls-3" d="m51,49.8c-5.6-7.3,33.3-20.6,56.1,15.5-11.6-4.5-34.4-6.6-49.8,0-1.5-5.2-4.3-12.4-4.3-12.4,0,0,0,10.9.6,13.6-1.2,1.3-6.1,6.4-7.6,9.1-.5-5.6.9-16.9,2.6-20.2"/><path class="cls-3" d="m80.6,109.3c11.7-2.7,24.1-8,31.6-18.3-4.2-.2-17.3-15.5-18.5-29.1"/><path class="cls-3" d="m64.7,111.7c.6,0,1.2-.1,1.8-.2"/><path class="cls-3" d="m50.5,48.4l-2.2,3.3c-2.1,0-2.8.6-4.3,3.6-13.1,20.8-4,45,8.2,56.6,1.5,0,5.6.2,12.1-.2"/><path class="cls-3" d="m46.8,74.9s3,15.6,19.3,23.1c-11.7,4.7-24.2,15.4-1.4,13.7"/><path class="cls-3" d="m88.1,61.3c1.3,9.5,6.9,8.8,8.3,15.2.2,1.5,5.3,21.1-14.5,29.8-2.3,2.2-.3,8,0,11.3"/><path class="cls-3" d="m57.2,102.8c.3.2,4,3.4,7.9,4.5.7,1.3,2.1,8.1,2.1,10.8"/><path class="cls-3" d="m79.3,99.4s-2.3,2.6-5.1.6"/><path class="cls-3" d="m66.9,115.6c-9.7,0,4,17.4,10.7,17.2,6.7,0,7.6-12.1,7.4-14-1.3-2.4-3.1-4.4-3.6-4.3"/><path class="cls-3" d="m66.5,117.1c5.6,10.2,13.5,12.6,15.7-.8"/><path class="cls-3" d="m63.2,118.5c-.1.2-10.4-2.5-13.4-1-1.2,1.5-8.5,19.4-12.6,22.1,2.4,5.4,10.4,13.8,18.2,10.4.8-4.1,3.3-16.9,3.6-18.1"/><path class="cls-3" d="m85.1,118.8c.2,0,9.9-.3,13.3.8,0,0,7.5,20,9.4,24.2"/><path class="cls-3" d="m100.5,154.7c-.3-5.9,6.4-11.9,13.7-10.5"/><path class="cls-3" d="m101.1,151.2c.1,0-2.9,1.3-4,1.4"/><path class="cls-3" d="m98.6,152.2l.9,3.1s-.2,1.9,1,2.5c6.5,3.8,9.4,3.4,14.4-1.9"/><path class="cls-3" d="m115.4,145.4c0-.2.5-3.1,1.1-3.6.7-.8,7.5-2.3,7.5-2.3,0,0-2.6,2.3.9-.4,3.5-2.7,8.3-1.5,8.3-1.5,0,0,.8.4-1.8,2.1-4.4,3.3-4.8,3.3-5.4,6.6,0,0,.9.7,2.5.9"/><path class="cls-3" d="m115.8,143.2c-4.8,1.5-6.7,11.1-.5,12.9"/><path class="cls-3" d="m127.4,149.4c0-3,6.3-4.3,4.8-.6,0,0-1,2.1-.9,2.9.1.8-3.1,1.6-3.5.6"/><path class="cls-3" d="m123.5,151.4c0-.7,2.1-4.1,3.7-1.8,1.4,3.8-1.1,7.7-5.2,4.2"/><path class="cls-3" d="m122.4,150.3s.7-.5,1.3-.2"/><path class="cls-3" d="m122.6,154.1s-1.6,1.5-2.4,1.5"/><path class="cls-3" d="m120.1,155.6c0,1.1,1.2,3-1.8,3.5-5.9.3-.4-11.5,1.8-3.5Z"/><path class="cls-3" d="m52.4,150.7c0,.1-6.3,20.9-6.3,21"/><path class="cls-3" d="m48.8,176.3c5.8-9.1,6.3,8.4-3.3,2.5"/><path class="cls-3" d="m43.7,173.8s2.9-2.8,4.2-1.9c1.6,1,.8,2.5.2,3.4-2.2,3.2-4.9,7.5-8.4,2.9"/><path class="cls-3" d="m37.2,174.1c1.3-1.1,5.1-4.2,6.3-2.9,1.8,2.6-2,5.4-3.7,6.8-1.1,1.4-4.4.9-4.9-.3-.3-.8.5-3.2.7-3.8l-1.5-3.9c-14.3,6.6-2.9-6.9,3.1-5.3"/><path class="cls-3" d="m95.3,131.6c1,2.8,4,55.4,5.8,55.9-14.5,10.1-24.6,10.7-42.3-.2,5.5-11.4,1-30.2-2.8-40.4"/><path class="cls-3" d="m51.5,118.5s6,1.3,7.2,9.2"/><path class="cls-3" d="m95,129.9s1.3-1.8,1.4-8.8"/><path class="cls-3" d="m49.2,175.3c-.4,0-.7.2-1.1.2"/><path class="cls-3" d="m58.7,68.8c-.3-2.3,2.1-3.7,4-2.7"/><path class="cls-3" d="m79.8,64.1c.6-1.1,3.1-.7,3.6,0"/><path class="cls-3" d="m63.7,70.9c1.2,3.3-1.2,4.2-2.4.9-1.3-3.3,1.2-4.2,2.4-.9Z"/><path class="cls-3" d="m83.5,69.5c1.1,2.9-1.1,3.7-2.1.8-1.1-2.9,1.1-3.7,2.1-.8Z"/><path class="cls-3" d="m74.9,72.8c.7,1.4,1.3,1.6,2.2.5,1,1.8,1.4,3.6.5,4.7"/><path class="cls-1" d="m85.2,83.9c-3.2,7.8-14.5,7.2-18.4.9,1.5-.3,16.8-1.1,18.4-.9Z"/><polyline class="cls-9" points="66.1 155.5 85.4 135.6 87.2 161.3 77.3 158.3 82 145.3 74.7 158.1"/><polyline class="cls-9" points="77.9 160.5 81.6 161.7 79.4 167.5"/><rect class="cls-8" x="117" y="104.9" width="20.8" height="20.8" transform="translate(-37.8 68) rotate(-26.2)"/><rect class="cls-11" x="95.8" y="14.9" width="20.7" height="20.7" transform="translate(2.2 58.2) rotate(-31)"/><polygon class="cls-5" points="37.3 39.3 26.3 56.9 8.7 45.9 19.7 28.3 37.3 39.3"/><rect class="cls-2" x="95.8" y="14.9" width="20.7" height="20.7" transform="translate(2.2 58.2) rotate(-31)"/><rect class="cls-2" x="117" y="104.9" width="20.8" height="20.8" transform="translate(-37.8 68) rotate(-26.2)"/><polygon class="cls-2" points="37.3 39.3 26.3 56.9 8.7 45.9 19.7 28.3 37.3 39.3"/><rect class="cls-4" x="41.1" y="149.3" width="20.8" height="20.8" transform="translate(-114.8 181.7) rotate(-79.7)"/></svg>