<?xml version="1.0" encoding="UTF-8"?><svg id="Layer_1" xmlns="http://www.w3.org/2000/svg" width="150" height="196" viewBox="0 0 150 196"><defs><style>.cls-1{stroke-linejoin:round;}.cls-1,.cls-2{stroke-linecap:round;}.cls-1,.cls-2,.cls-3{stroke:#000;}.cls-1,.cls-2,.cls-3,.cls-4{fill:none;}.cls-2,.cls-5,.cls-3,.cls-4{stroke-miterlimit:10;}.cls-5{fill:#5b2ac2;}.cls-5,.cls-4{stroke:#fff;}.cls-6,.cls-7,.cls-8,.cls-9,.cls-10,.cls-11,.cls-12,.cls-13,.cls-14{stroke-width:0px;}.cls-7{fill:#7b5b4b;}.cls-8{fill:#1e160d;}.cls-9{fill:#d8ccc0;}.cls-10{fill:#db8d46;}.cls-11{fill:#b52d00;}.cls-12{fill:#00a553;}.cls-13{fill:#fff;}.cls-14{fill:#eab888;}</style></defs><path class="cls-14" d="m94.2,171.9c.9,9.4.6,5.8.4,15-15.7,6.1-34.2,6.4-50.3,1.5,1.6-3.1,2.2-8.2,2.1-12.2,16,3.1,40.9-.2,47.7-4.6,0,0,0,0,0,.1Z"/><path class="cls-10" d="m94.1,171.7c-6.8,4.4-31.7,7.6-47.7,4.6,0-3.9-.3-5.6-.4-10.5,15.7.6,36.7-.2,47.4-6,.2,3.9.5,8.6.8,12Z"/><path class="cls-14" d="m93.4,159.8c-10.7,5.8-31.7,6.5-47.4,6-.2-4.3-.5-9.3-1.1-12.8,16.2,2,32.1,0,47.7-4.9.3,3.9.5,7.9.8,11.7Z"/><path class="cls-9" d="m89.3,139.9c0,4.3-6.6,7.4-9.6,4.8-2.9-2.6-4.6-8.3-4.6-12.3,0-1.5,12.7-3.5,12.7-3.3,1,4.6,1.5,6.8,1.5,10.9Z"/><path class="cls-10" d="m96.8,119.9c-9-8.8-21.7-9.8-25.5,5.1,5.9-.8,13-1.6,17.8-2.7.8,2.8,1.3,5.7,1.5,7.6,3.5-.3,8-.9,8.9-2.7-.8-3.1-1.6-5.7-2.7-7.2Z"/><path class="cls-7" d="m40.2,86.7c9.1,3.9-4.5-16.8-4.5-22.4,1.9-9.5,16-14.6,23.3-17.5,13.8-4.9,21.5,4.2,22.7,16.2,1,5.8,3,7.8,5,18.3,2.9,13.3-8.9,14.7-11.8,26-1.1,4,.4,6.3-5,9.6-3,1.5-13,0-15-5.7-2.1-5.8-3.4-9.5-10.6-15.3-5.4,2.9-13.8-12.8-4.1-9.4h0Zm37.3-2.3c-4.6,1.3-16.2,2.5-15.5,3.1,4.6,5,15,4.8,16.2-3h-.7Zm-.5-12.6c1.7-.5-.8-7-2.4-6.3-1.7.5.8,7,2.4,6.3Zm-20.9,6.9c2-.7-.8-7.8-2.7-6.9-2,.7.8,7.8,2.7,6.9Z"/><path class="cls-8" d="m79.1,53.3c0,.1.3.8.5,1.8-1.9-7.8-12.2-11.9-20.8-8.4-7.3,2.8-21.4,8-23.3,17.5,0,5.7,13.6,26.3,4.5,22.4h0c-1-.7-2.4-.9-3.4-.3-7.9-12-15.5-26.5-11.2-33.7,4.5-7.5,28.1-18.2,40.1-17.4,7.7.5,10.6,7.8,13.4,18Z"/><path class="cls-13" d="m77.5,84.4h.7c-1.1,7.8-11.5,8.1-16.2,3.1-.7-.6,10.9-1.8,15.5-3.1Z"/><path class="cls-6" d="m77.1,68.2c1.6,4.1-1,5.1-2.6,1-1.6-4.1,1-5.1,2.6-1Z"/><path class="cls-6" d="m56.3,74.7c1.8,4.5-1.3,5.7-3,1.2-1.8-4.5,1.3-5.7,3-1.2Z"/><path class="cls-10" d="m68.7,125.4c-5.3-5.2-14-9.2-21.5-8.1,0-1.2.2-2.2.7-3.2-6.9,3-16.1,4.4-18.3,13.3,3.3,2.8,9.9,4.6,15.5,4.7,0-1.9,0-3.6-.3-5.3,8.3,0,16.6-.6,23.9-1.4Z"/><path class="cls-14" d="m99.5,127.2c-.9,1.9-5.4,2.4-8.9,2.7-.2-1.9-.7-4.7-1.5-7.6-4.8,1.2-11.9,1.9-17.8,2.7,1.2-6.3,6.2-11.2,12.8-12.6-1.7-2.5-6.5-4.4-9.3-5.2-1.1,3.9.4,6.4-5,9.6-4.2,2-15.3-1.1-16-8.4-3.1,1.7-6.9,4.7-6.6,8.7,7.5-1.1,16.2,2.9,21.5,8.1-7.3.8-15.6,1.4-23.9,1.4.3,1.7.4,3.5.3,5.3-5.5-.1-12.2-2-15.5-4.7-.4.2-2.4,12.9-2.6,13.5h.2c3.1,2.9,9.8,4.7,16.7,4,.2-1.6.3-3.4.5-5.4,9.3.4,21.1-.3,31.4-1.8-.5-1.9-.8-3.8-.8-5.4,0-1.5,12.7-3.5,12.7-3.3.6,2.7,1,4.6,1.2,6.2,1-.2,1.7-.6,2.3-.9.3,2.2.6,4.5.8,6.6,4,0,8.5-2.1,9.7-3.1-.7-3.8-1.4-7.5-2.2-10.7Z"/><path class="cls-10" d="m103.6,146.9c-.7-2.8-1.3-5.9-1.9-9-1.2,1-5.7,3.1-9.7,3.1-.2-2.2-.5-4.4-.8-6.6-.5.3-1.2.7-2.3.9,2.8,11.8-10.8,14.7-13.1,2.5-10.3,1.5-22.1,2.2-31.4,1.8-.2,1.9-.4,3.7-.5,5.4-6.8.6-13.6-1.1-16.7-4h-.2s-2.2,12.2-2.2,12.2c6,7.1,19.3,8.5,18.6-4.3h0c.5.8.9,2.2,1.3,4,16.2,2,32.1,0,47.7-4.9.2,2,.3,4,.4,5.9,5,.6,5.3-6.8,10.6-6.7v-.4Z"/><path class="cls-7" d="m131.5,143.8c-4.4-1.5-9.8.2-13.3,3.1-2.6-1.1-6.5.7-7.1,3.3-.1-.8-.2-1.5-.7-2.1-12.6-4.6-10.5,5.9-17.3,5.8.2,3.1.3,5.9.5,8.9h0c2.4,5.9,10.4,2.4,14.4.2.7.9,1.8,1.6,2.9,1.7-1.8,5.7,7.5,5.3,5.4-.4h0c1-.3,1.9-1,2.4-2,2.2,1.7,6,1.9,6.4-1.5,1.2-.1,2.7.6,3.7-.3,1.6-2.5,4.1-9-1.5-6.5h0c-2.3.5-4.9-1.1-3.3-3.5,1.8-2.7,6.7-3.7,7.8-6.6Z"/><path class="cls-7" d="m43.1,175.8c-1.5.5-1.6,3.9-3.7,2.9,0,0,0,0,0,0,.6-1.4,1.3-3.5,0-4.6-.5-1.3-1-2.6-1.9-3.6.5-5.1,2-12,2.4-12.8-5.3,1.9-9.4.6-13.6-3.2-.4,1.9-2.3,10.4-2.4,12.8-7,3.3-11.8,10.8.3,5.9,2.7,2.5-1,12.9,6.4,8.4,1,2.4,4.3,2,6,.5,5.6,4.9,13-5.2,6.6-6.3Z"/><path class="cls-3" d="m74.9,107.3c-1.1,3.9.4,6.4-5,9.6-3,1.5-13,0-15-5.7-2.1-5.8-3.4-9.5-10.6-15.3"/><path class="cls-3" d="m79.7,55.2c2.4,10.5,3.7,12.5,7,26.1,2,10-4.2,14.3-10.4,21.4,0,0-.9,2.3-1.5,4.6"/><path class="cls-3" d="m36.6,86c-8-12.1-15.2-26.1-11-33.3,4.5-7.5,28.1-18.2,40.1-17.4,8.2.3,11.2,9.8,14,19.9"/><path class="cls-1" d="m74.5,69.2c1.6,4.1,4.2,3.1,2.6-1-1.6-4.1-4.2-3.1-2.6,1Z"/><path class="cls-1" d="m53.2,75.9c1.7,4.5,4.8,3.3,3-1.2-1.7-4.5-4.8-3.3-3,1.2Z"/><path class="cls-1" d="m40.2,86.6c-7.3-2.6-4.3,5.5-.8,8.1,1.4,2.2,6.5,2.5,5.5-1"/><path class="cls-1" d="m64.7,82c1-4.5,10.9-6.8,11.1-2.7"/><path class="cls-3" d="m79.7,55.2c-1.9-7.8-12.2-11.9-20.8-8.4-7.3,2.8-21.4,8-23.3,17.5,0,5.8,14,26.9,4.1,22.2"/><path class="cls-3" d="m47.9,114.1c-6.9,3-16.1,4.4-18.3,13.3-1.6,6.6-3.4,19-4.8,25.7,4.5,5.2,10.3,6.7,16.4,3.9,2.9-4,2.3-14,3.4-19.8"/><path class="cls-3" d="m82.6,112.9c19.8,3.3,16.8,18.8,21,34"/><path class="cls-3" d="m97.5,165.9c3.5,1,7.5-1.6,10.5-2.9"/><path class="cls-3" d="m96.8,152.7c-1.5,3.7-3.9,10.3.3,13.1"/><path class="cls-3" d="m111,150.3c-.1-.8-.2-1.5-.7-2.1-4.7-2.3-11.2-.8-13.5,4.3"/><path class="cls-3" d="m37.4,170.4c.5-5.1,2-12,2.4-12.8"/><path class="cls-3" d="m26.1,154.3c-.4,2-2.3,10.5-2.4,12.9"/><path class="cls-3" d="m97.5,165.9c-2.3-.7-3.1-1.1-3.9-3.1"/><path class="cls-2" d="m94.6,186.9c-15.7,6.1-34.2,6.4-50.3,1.5,3.7-9.4,2.2-29.7-.7-39.6"/><path class="cls-2" d="m90.6,129.9c2.4,18.7,3.8,37.4,4,56"/><path class="cls-3" d="m56,63.7c-5.4-.1-9.3,3.1-10.1,4.5"/><path class="cls-3" d="m68.5,60.6c3.7-3.6,8.3-3.1,9.2-1.9"/><path class="cls-1" d="m78.5,84.1c-4.3,1.6-17.1,2.7-16.5,3.4,4.6,5,15,4.8,16.2-3"/><path class="cls-3" d="m93,153.9c1.5,0,3.2,0,3.9-1.5"/><path class="cls-1" d="m53.8,108.6c-3.1,1.7-6.8,4.7-6.5,8.7,8.6-1.2,17.6,3.9,23.4,9.9,1.2-7.2,5.7-13.2,13.4-14.7-1.6-2.4-6.4-4.4-9-5.1"/><path class="cls-3" d="m37.6,118.3c9,2.8,7.7,11.7,7.2,19"/><path class="cls-3" d="m90.6,129.9c-.3-3.9-2.9-15.2-6-16.6"/><path class="cls-3" d="m71.3,125c5.9-.8,13-1.6,17.8-2.7"/><path class="cls-3" d="m44.8,126.8c8.3,0,16.6-.6,23.9-1.4"/><path class="cls-3" d="m89.3,135.2c1.1-.3,1.4-.5,1.9-.8"/><path class="cls-3" d="m44.5,139.6c9.3.4,21.1-.3,31.4-1.8"/><path class="cls-3" d="m44.9,152.9c16.1,2,32,0,47.5-4.9"/><path class="cls-3" d="m45.9,165.7c15.6.5,36.7-.1,47.4-6"/><path class="cls-3" d="m46.5,176.3c15.9,3,40.9-.1,47.6-4.5"/><path class="cls-3" d="m75.9,137.8c.8,2.7,2.1,5.3,3.8,6.9,3,2.7,9.7-.4,9.6-4.8,0-4-.5-6.3-1.5-10.9,0-.2-12.8,1.8-12.7,3.3,0,1.6.3,3.6.8,5.4Z"/><path class="cls-3" d="m29.9,127.5c3,2.8,9.8,4.4,15.2,4.7"/><path class="cls-3" d="m27.3,141c3.1,2.8,9.5,4.7,16.4,4"/><path class="cls-3" d="m90.6,129.9c3.5-.3,8-.9,8.9-2.7"/><path class="cls-3" d="m101.7,137.9s0,0,0,0c-1.2,1-5.6,3.1-9.6,3.1"/><path class="cls-3" d="m49.9,98.5c6.6,4.7,6.4,3,15.5,3.9"/><line class="cls-3" x1="116.2" y1="164.3" x2="116.2" y2="164.3"/><line class="cls-3" x1="39.4" y1="178.7" x2="39.4" y2="178.7"/><path class="cls-3" d="m111.1,152.4c-1-3.8,3.8-6.7,7.1-5.4,3.6-2.9,8.9-4.6,13.3-3.1-1.1,2.9-5.9,3.8-7.8,6.6-1.6,2.4,1,4,3.3,3.5"/><path class="cls-3" d="m118.9,157.3c1.5,2.4,3.2-1.9,5.1-1.2,3.4,4-.4,10.4-5.5,6.2"/><path class="cls-3" d="m111,150.9c-5.5,1.2-6.2,13.4,0,13.9"/><path class="cls-3" d="m124.6,156.6c.8-2,4.4-4.5,6-2.3.3,2.1-1.2,4.3-2,6.2-1,.9-2.4.2-3.6.4"/><path class="cls-3" d="m112.2,161.2c-1.3,1.7-2,4.8-1,6.8,1.4,1.2,4.9,1.3,5.3-1.1.4-2.1-1.6-8.1-4.2-5.6Z"/><path class="cls-3" d="m116.2,164.3c1.1-.3,2-1.1,2.5-2.1"/><path class="cls-3" d="m39.3,174.1c-1.1-4.4-4.4-5.4-8.2-6.4-7.1-6-24.3,12.3-7.1,5.4,2.6,2.2-.5,7.7,3,9.3,3.7.7,6.6-4.2,8-7,.4-4.7-5.4-1.3-6.7.7"/><path class="cls-3" d="m30.4,181.4c2.7,5,9.5-.9,9.7-4.9.6-3.7-3.7-3.2-5.2-.9"/><path class="cls-3" d="m36.2,181.8c5.6,5.4,13.5-4.9,6.9-6-1.5.5-1.6,3.9-3.7,2.9"/><rect class="cls-12" x="109.8" y="75.2" width="20.8" height="20.8" transform="translate(-25.5 61.8) rotate(-26.2)"/><polygon class="cls-11" points="33.7 1 44.4 18.8 26.6 29.6 15.9 11.7 33.7 1"/><polygon class="cls-4" points="15.9 11.7 26.6 29.6 44.4 18.8 33.7 1 15.9 11.7"/><rect class="cls-4" x="109.8" y="75.2" width="20.8" height="20.8" transform="translate(-25.5 61.8) rotate(-26.2)"/><rect class="cls-5" x="28.1" y="148.3" width="20.8" height="20.8" transform="translate(-124.5 168.1) rotate(-79.7)"/></svg>