<?xml version="1.0" encoding="UTF-8"?><svg id="Layer_1" xmlns="http://www.w3.org/2000/svg" width="150" height="196" viewBox="0 0 150 196"><defs><style>.cls-1{stroke-linejoin:round;}.cls-1,.cls-2{stroke-linecap:round;}.cls-1,.cls-2,.cls-3{stroke:#000;}.cls-1,.cls-2,.cls-3,.cls-4{fill:none;}.cls-2,.cls-5,.cls-3,.cls-4{stroke-miterlimit:10;}.cls-5{fill:#5b2ac2;}.cls-5,.cls-4{stroke:#fff;}.cls-6,.cls-7,.cls-8,.cls-9,.cls-10,.cls-11,.cls-12,.cls-13,.cls-14,.cls-15{stroke-width:0px;}.cls-7{fill:#29a4db;}.cls-8{fill:#39ae4a;}.cls-9{fill:#3c4048;}.cls-10{fill:#af877b;}.cls-11{fill:#bd957d;}.cls-12{fill:#b52d00;}.cls-13{fill:#00a553;}.cls-14{fill:#ec85b2;}.cls-15{fill:#e4b972;}</style></defs><path class="cls-9" d="m80.2,114.5c1.3,9,7.7,17.8,6.3,27.6-.7,3.7-14,3-15.1.2-.2-10.9-.6-26.7.7-37.2,1.5-.7,2.9-1.6,4-2.5.4,0,3.6,1.1,4,1.2-.4,4.5-.4,7.9,0,10.7Z"/><path class="cls-15" d="m82.7,100.5c-.5,5.2-3.1,2.9-6.5,2.1,1.4-1.1,2.6-2.3,3.5-3.6,1,.5,2.6.6,3.1,1.5Z"/><path class="cls-11" d="m79.6,99c-1.8,2.6-4.4,4.6-7.5,6.1-1.4,6,1.7,14.4-9.4,14.6-6.6.6-10.7-5.6-15.5-12.5,2-1.6-.9-4.5-2.6-4.3-2.6-12.4-3.2-23.8,1.2-32.8.9-.4,1.9-1.8,1.5-2.8,1.2-2.1,2.2-3.9,3.2-5.9,1.3.4,3.5-1.7,2.6-3.2,3.9-4.5,6.3-5.4,12.9-3-.8,2.2,2.3,3.4,4.1,2.7,1.7,1.3,2,1.5,3.4,3.1h0c-.1,1.2,1.5,3.5,2.8,3.4,1.9,2.4,2.6,4.1,2.8,6,.6,7,7.6,19.9.6,28.5Zm-4-20.7c1.6-.5-.8-6.7-2.3-6-1.6.5.8,6.7,2.3,6Zm-6.8-9.4c3.9-1.5,4.2-1.5,7-1.4.7-2.6-9.1-1.8-7,1.4Zm-12.4,3.3c.3-4-9.2,0-8.3,2.9.9.9,2.2-2.2,8.3-2.9Zm-.5,11.6c1.9-.6-.8-7.5-2.6-6.6-1.9.6.8,7.5,2.6,6.6Z"/><path class="cls-8" d="m79.5,58.3c.3,2.1-1,5.8-3.3,6.2-1.6,0-3.6-2.9-2.5-4.3.9-.9,5.4-3.1,5.8-1.9Z"/><path class="cls-6" d="m75.7,74.8c1.5,3.9-1,4.9-2.4,1-1.6-3.9,1-4.9,2.4-1Z"/><path class="cls-9" d="m75.8,67.4c-2.8-.1-3,0-7,1.4-2.1-3.2,7.6-4,7-1.4Z"/><path class="cls-7" d="m70,58c-9.1,1-.7-9.1,2.8-6.3,0,1.1-1.3,6.1-2.8,6.3Z"/><path class="cls-9" d="m81.2,59.1c-6.7-9.4-19.7-16.6-31.1-13-7.8,2.5-22.1,9.3-24.2,23.6-2.1,13.9,4.1,30.7,12.7,38,.5-1.7,3.4-4.7,6-4.7-2.6-12.4-3.2-23.8,1.2-32.8-1.6,1.8-10.9-4.5-9.4-8.1,3.4-.7,9.1,1.9,10.9,5.2,1.2-2.1,2.2-3.9,3.2-5.9-13.3-7.1-4.1-7.9,2.6-3.2,3.9-4.5,6.3-5.4,12.9-3,1-2.5,5.4-5.3,6.8-3.6,0,1.1-1.3,6.1-2.8,6.3,1.7,1.3,2,1.5,3.4,3.1h0c0-1.8,5.4-3.6,6.1-2.9.6,2.1-.9,6-3.2,6.3,1.9,2.4,2.6,4.1,2.8,6,.6,7,7.6,19.9.6,28.5.6.3,1.5.5,2.2.4,6-11.5,5.1-28-.6-40.2Z"/><path class="cls-9" d="m41.6,114.6c-.1-1.3-.3-2.7-.5-4.1,1.9-.8,4.4-1.8,6.2-3.3,1.2,1.4,4.9,6.2,5.1,7.2,3.8,12.1,10,17.8,11.3,29.2-22,22.5-20.5-14.8-22-29Z"/><path class="cls-9" d="m56,71c.4.3.8.6.4,1.2-6.1.7-7.4,3.9-8.3,2.9-.4-2.8,5.9-5.7,7.9-4.2Z"/><path class="cls-6" d="m56,79.8c1.7,4.3-1.2,5.5-2.9,1.1-1.7-4.3,1.2-5.5,2.9-1.1Z"/><path class="cls-7" d="m53,58.3c.9,1.3-1,3.1-2,3.2-2.5-.1-9.5-5.6-6.8-6.3,1.8-.5,8.3,2.4,8.7,3.1Z"/><path class="cls-15" d="m47.2,107.3c-1.7,1.5-4.3,2.4-6.2,3.3-5.9.3-.5-7.8,3.5-7.5,1.7-.3,4.6,2.6,2.6,4.3Z"/><path class="cls-8" d="m47.2,67.3c.2,10.3-19.6-8.6-6.9-4.9,1.7.6,6.2,2.6,6.9,4.9Z"/><path class="cls-14" d="m103.9,160.5c-1.1-2.5-1.3-7.8,1.4-9.9-1.7-.4-3.5-.6-5.1-.7-7.2-10.8-8.6-31.7-20-35.4,1.3,9,7.7,17.8,6.3,27.6-.7,3.7-14,3-15.1.2-.5-9.2.2-20.3-.1-29.7.3,8.3-12.1,10.1-19,1.8,3.8,12.1,10,17.8,11.3,29.2.2,1.7-11.2,9.3-15,6.3-7.3-9.3-5.5-24.4-7-35.3-7.7,3.1-9.6,21.3-9.6,21.3-.1.9-7.2,28.9-6.3,28.7,1.8-.3,3.7,0,5.1,1,2.7,1,6.1,1.1,7.1,4.5.6-8.8,1.8-14.7,5.4-25.5h0c5,12,4.5,31.7.7,44.3,15.4,4.6,34.1,5.9,49.1,0-1.9-10.7-7.7-27-6.3-35.8,6.7,12.6,5,17.7,20.2,10,0,0,0-.2,0-.3-1.4,0-2.6-1.1-3.3-2.3Z"/><path class="cls-10" d="m38,170.1c.3.5.5,1.1.7,1.6-.3-.2-.6-.3-.9-.4,0-.4.1-.9.2-1.3Z"/><path class="cls-11" d="m126.9,142.8c-4.2-1.4-9.4.2-12.8,2.9-2.6-1.1-6.8.9-6.9,3.8-5.4,1.3-5.8,12.5-.1,13.2-1.7,5.4,7.2,5.1,5.1-.4,0,0,0,0,0,0h0c1-.3,1.8-1,2.3-1.9,2.1,1.6,5.7,1.8,6.1-1.5h0s0,0,0,0c1.1-.1,2.5.6,3.5-.3,1.5-2.4,4-8.7-1.5-6.3h0c-2.2.5-4.7-1.1-3.2-3.4,1.7-2.6,6.4-3.5,7.4-6.3Z"/><path class="cls-11" d="m42.3,173.4c-1.5.5-1.6,3.8-3.6,2.8.8-1.5,1.4-4.5-.9-4.8,0-.4.1-.9.2-1.3-1.1-3.3-4.4-3.4-7.1-4.5-6.8-5.7-23.3,11.8-6.8,5.2,2.6,2.4-.9,12.4,6.2,8.1,1,2.3,4.1,1.9,5.8.5,5.3,4.7,12.5-4.9,6.4-6Z"/><path class="cls-2" d="m52.3,114.4c-.3-1.2-4.1-6-5.4-7.5"/><path class="cls-2" d="m79,70.5c2.1,11.6,9.7,26.4-6.8,34.6,0,0-.9,7.2-1,9.4"/><path class="cls-1" d="m68.8,68.9c-2.1-3.2,7.6-4,7-1.4-2.8-.1-3,0-7,1.4Z"/><path class="cls-1" d="m56.4,72.2c.3-4-9.2,0-8.3,2.9.9.9,2.2-2.2,8.3-2.9Z"/><path class="cls-1" d="m73.2,75.7c1.5,3.9,4,2.9,2.4-1-1.5-3.9-4-2.9-2.4,1Z"/><path class="cls-1" d="m53.1,81c1.7,4.3,4.6,3.2,2.9-1.1-1.7-4.3-4.6-3.1-2.9,1.1Z"/><path class="cls-1" d="m63.5,92.8c3.9,1.5,8.1.5,11.7-2.4"/><path class="cls-1" d="m45.7,70.2c-4.2,8.9-4.1,19.9-1.2,32.2"/><path class="cls-1" d="m50.4,61.5c-1.1,1.9-2,3.7-3.2,5.8"/><path class="cls-1" d="m65.9,55.3c-6.6-2.5-9-1.5-12.9,3"/><path class="cls-1" d="m73.4,61.1c-1.4-1.6-1.7-1.9-3.4-3.1"/><path class="cls-1" d="m79,70.5c-.2-1.9-1-3.6-2.8-6"/><path class="cls-2" d="m38.3,165.7c.7-5.9,3-16,6.3-24.2"/><line class="cls-2" x1="32" y1="136" x2="25.8" y2="161.9"/><path class="cls-2" d="m32,136s2-18.7,9.9-21.4"/><path class="cls-2" d="m94.2,137.1c1.4,3.3,4.6,10.4,6.1,13.1"/><path class="cls-2" d="m94.2,137.1c-4.5-12-5.1-19-14-22.6"/><path class="cls-2" d="m91.2,161.5c2.4,9.3,10.3,3.9,15.9,1.6"/><path class="cls-2" d="m105.3,150.6c-7.3-2.6-18.3,2.1-14.2,10.8"/><path class="cls-2" d="m38,170.1c.2-1.9.1-3.5.3-4.4"/><path class="cls-2" d="m25.8,161.9c-.2,1-.2,1.8-.2,2.7"/><path class="cls-2" d="m93.2,188.9c-15,5.9-33.6,4.6-49.1,0,3.7-12.7,4.2-32.3-.7-44.3"/><path class="cls-2" d="m86.9,153.1c-1.5,8.8,4.4,25.1,6.3,35.8"/><path class="cls-2" d="m87.7,130c.9,8.4.3,13.8-.8,23.1"/><path class="cls-2" d="m86.9,153.1c1.3,3.1,2.8,5.2,4.3,8.3"/><path class="cls-2" d="m52.3,114.4c6.3,7.7,17.6,6.5,18.9,0"/><path class="cls-2" d="m64.5,86.9c.6-2.8,8.2-7.6,9-2.7"/><line class="cls-3" x1="122.7" y1="152.5" x2="122.7" y2="152.5"/><line class="cls-3" x1="122.7" y1="152.4" x2="122.7" y2="152.5"/><path class="cls-3" d="m107.3,151c-1-3.6,3.6-6.4,6.8-5.2,3.4-2.7,8.6-4.4,12.8-2.9-1,2.8-5.7,3.7-7.4,6.3-1.5,2.3,1,3.9,3.2,3.3"/><path class="cls-3" d="m114.8,155.7c1.4,2.3,3.1-1.8,4.8-1.2,3.2,3.8-.3,9.9-5.3,5.9"/><path class="cls-3" d="m107.2,149.6c-5.4,1.3-5.8,12.8,0,13.3"/><path class="cls-3" d="m120.3,155c.8-1.9,4.2-4.4,5.8-2.2.3,2-1.1,4.2-1.9,5.9-.9.9-2.3.2-3.5.3"/><path class="cls-3" d="m112.3,162.4c-2-7.8-6.8-.7-4.9,3.4,2.7,2,6.2.2,4.9-3.4Z"/><path class="cls-3" d="m112.3,162.4c1-.3,1.9-1.1,2.4-2"/><path class="cls-3" d="m38.7,171.8c-1-4.2-4.2-5.2-7.9-6.1-6.8-5.7-23.3,11.8-6.8,5.2,2.5,2.1-.5,7.4,2.9,8.9,3.6.7,6.4-4,7.7-6.9.1-4.4-5.2-1.1-6.5.9"/><path class="cls-3" d="m30.1,178.7c2,4.2,7.4.4,8.6-2.5,2.2-3.7-1.1-6.8-4.1-3.3"/><path class="cls-3" d="m35.7,179.2c5.4,5.2,12.9-4.7,6.6-5.8-1.5.5-1.6,3.8-3.5,2.8"/><path class="cls-1" d="m38.9,108c-19.9-19.1-18.8-54.5,11.2-61.9,30.2-6.9,43.5,30.5,31.7,53.2"/><path class="cls-1" d="m38.5,107.7c-.8,2.5,1.8,3.7,3.7,2.3,1.6-1.1,6.9-2.2,5.3-5.3-2.5-4.3-8.2.3-9,2.9Z"/><path class="cls-1" d="m71.3,112.6c.4,9.4-.4,20.5.1,29.7,1.1,2.8,14.3,3.5,15.1-.2,1.1-14.1-9.1-23.7-6.4-38.3"/><path class="cls-1" d="m79,98.8c3.7.8,4.8,1.7,2.3,5-1.1.5-4-1.1-5.2-1.2"/><path class="cls-1" d="m53,58.3c.9,1.3-1,3.1-2,3.2-2.5-.1-9.5-5.6-6.8-6.3,1.8-.5,8.3,2.4,8.7,3.1Z"/><path class="cls-1" d="m47.2,67.3c-.7-2.3-5.3-4.3-6.9-4.9-12.7-3.7,7.2,15.2,6.9,4.9Z"/><path class="cls-1" d="m70,58c1.4-.2,2.7-5.3,2.8-6.3-3.5-2.8-11.9,7.3-2.8,6.3Z"/><path class="cls-1" d="m79.5,58.3c-.4-1.2-4.9,1-5.8,1.9-1.2,1.4.9,4.3,2.5,4.3"/><path class="cls-1" d="m76.2,64.5c2.4-.3,3.7-4.1,3.3-6.2"/><path class="cls-1" d="m41,110.6c2.4,12.3-.5,28.7,7.5,39.3,3.7,3,15.2-4.5,15-6.3-1.3-11.4-7.5-17.1-11.3-29.2"/><rect class="cls-13" x="109.8" y="75.2" width="20.8" height="20.8" transform="translate(-25.5 61.8) rotate(-26.2)"/><polygon class="cls-12" points="33.7 1 44.4 18.8 26.6 29.6 15.9 11.7 33.7 1"/><polygon class="cls-4" points="15.9 11.7 26.6 29.6 44.4 18.8 33.7 1 15.9 11.7"/><rect class="cls-4" x="109.8" y="75.2" width="20.8" height="20.8" transform="translate(-25.5 61.8) rotate(-26.2)"/><rect class="cls-5" x="28.1" y="148.3" width="20.8" height="20.8" transform="translate(-124.5 168.1) rotate(-79.7)"/></svg>