<?xml version="1.0" encoding="UTF-8"?><svg id="Layer_1" xmlns="http://www.w3.org/2000/svg" width="548" height="373" viewBox="0 0 548 373"><defs><style>.cls-1{stroke:#231f20;}.cls-1,.cls-2,.cls-3,.cls-4{fill:none;}.cls-1,.cls-2,.cls-5{stroke-linejoin:round;}.cls-1,.cls-2,.cls-5,.cls-4{stroke-linecap:round;}.cls-2,.cls-3,.cls-5,.cls-4{stroke:#000;}.cls-3,.cls-4{stroke-miterlimit:10;}.cls-3,.cls-6{stroke-width:3px;}.cls-5{fill:#fcee21;stroke-width:2px;}.cls-6{stroke:#414042;}.cls-6,.cls-7{fill:#fff;}.cls-8,.cls-9,.cls-10,.cls-11,.cls-12,.cls-13,.cls-14,.cls-15,.cls-16,.cls-17,.cls-7,.cls-18,.cls-19{stroke-width:0px;}.cls-9{fill:#5b2ac2;}.cls-10{fill:#5b5539;}.cls-11{fill:#231c19;}.cls-12{fill:#e0bfa4;}.cls-13{fill:#a4b4ee;}.cls-14{fill:#8c624d;}.cls-15{fill:#736b46;}.cls-16{fill:#00a553;}.cls-17{fill:#a26f56;}.cls-18{fill:#f0f0f0;}.cls-19{fill:#f4fcfe;}</style></defs><rect class="cls-19" width="548" height="373"/><rect class="cls-6" x="115.6" y="106.5" width="229.6" height="229.6"/><line class="cls-3" x1="254" y1="105.9" x2="254" y2="335.5"/><line class="cls-3" x1="115.6" y1="256.2" x2="345.2" y2="256.2"/><path class="cls-5" d="m507.1,38c-4.6,3.8-9.5,11-14.6,14-4.4-.8-11.4-3.4-16.5-4.9,3.9,8,4.6,10.5,7.1,16.3-3.7,5.2-6,11.9-10.4,16.4,8.6-1.3,20.2-3.4,20.2-3.4,0,0,6.3,7.2,11.6,14.8-.8-3.6,2.8-12.1,1.8-16.4,3.1-1.3,11.1-5.4,17.8-6.3-5.2-3.5-16.1-9.7-16.1-9.7,0,0-.3-13-1-20.9"/><path class="cls-16" d="m169.1,83.7c.5-.4,1.1-.6,1.7-.6s.5,0,.8.1c.3,0,.6.2.9.4l1.2.6c.2,0,.3.2.5.2.1,0,.3,0,.5,0,.6,0,1-.1,1.3-.4.3-.3,1.1-1.3,2.4-3,.8-1.1,2.8-3.8,5.7-8.2,0-.2-.3-1.4-.8-3.7-.5-2.3-1-4.2-1.4-5.8-.4-1.6-.8-2.7-1.2-3.2-.3-.5-1-.8-1.9-.8s-.9.1-1.9.3c-.6.1-1.2.3-1.9.5l-.3-1.1,3.8-1.3c1-.3,1.9-.6,2.7-.8.8-.2,1.5-.3,2.1-.3,1,0,1.7.3,2.2.9.7.9,1.3,2.7,1.8,5.4l.7,3.9c2.1-3.1,3.6-5.4,4.8-6.6,1-1.2,2-2,2.9-2.6.9-.6,1.8-.9,2.6-.9s1.4.1,1.9.3c.9.4,1.3,1.2,1.3,2.3s-.2,1.4-.7,1.8c-.4.4-1,.6-1.7.6s-.5,0-.7,0c-.2,0-.5-.1-.7-.3l-.9-.4c-.3-.1-.5-.2-.7-.3s-.4-.1-.5-.1c-1,0-2.4,1.3-4.3,4-1.8,2.7-2.7,4.2-2.7,4.6s.2,1.5.6,3.3c.4,1.9.9,3.9,1.4,6,.5,2,.8,3.3,1.2,4.1.5,1.2,1.1,1.8,1.8,1.8s1.2-.3,1.9-1,1.6-1.9,2.9-3.7l1,.6c-1,1.8-2,3.3-3,4.5-2,2.4-3.9,3.6-5.7,3.6s-2-.5-2.7-1.6c-.4-.6-.8-1.7-1.1-3.1l-2.1-8.4-7,9.2c-1.4,1.6-2.4,2.7-3.2,3.2-.7.5-1.7.8-2.8.8s-2.4-.5-3-1.4c-.3-.5-.4-1-.4-1.7s.3-1.5.8-1.9Z"/><path class="cls-8" d="m182.4,190.2c0-.8,0-1.4,0-1.8,0-2.4.3-4.5,1-6.3.5-1.3,1.3-2.7,2.4-4,.8-1,2.3-2.4,4.4-4.3,2.1-1.9,3.5-3.4,4.2-4.5.6-1.1,1-2.3,1-3.7,0-2.4-.9-4.5-2.8-6.3-1.9-1.8-4.2-2.7-6.9-2.7s-4.8.8-6.6,2.5c-1.8,1.6-2.9,4.2-3.5,7.7l-6.3-.8c.6-4.7,2.3-8.2,5.1-10.7,2.8-2.5,6.5-3.7,11.2-3.7s8.8,1.3,11.7,4c2.9,2.7,4.4,5.9,4.4,9.7s-.5,4.2-1.5,6c-1,1.8-3,4.1-6,6.7-2,1.8-3.3,3.1-3.9,3.9-.6.8-1.1,1.8-1.4,2.9-.3,1.1-.5,2.9-.5,5.3h-5.9Zm-.4,12.3v-7h7v7h-7Z"/><path class="cls-8" d="m299.1,190.2c0-.8,0-1.4,0-1.8,0-2.4.3-4.5,1-6.3.5-1.3,1.3-2.7,2.4-4,.8-1,2.3-2.4,4.4-4.3,2.1-1.9,3.5-3.4,4.2-4.5.6-1.1,1-2.3,1-3.7,0-2.4-.9-4.5-2.8-6.3-1.9-1.8-4.2-2.7-6.9-2.7s-4.8.8-6.6,2.5-2.9,4.2-3.5,7.7l-6.3-.8c.6-4.7,2.3-8.2,5.1-10.7,2.8-2.5,6.5-3.7,11.2-3.7s8.8,1.3,11.7,4,4.4,5.9,4.4,9.7-.5,4.2-1.5,6-3,4.1-6,6.7c-2,1.8-3.3,3.1-3.9,3.9-.6.8-1.1,1.8-1.4,2.9-.3,1.1-.5,2.9-.5,5.3h-5.9Zm-.4,12.3v-7h7v7h-7Z"/><path class="cls-8" d="m299.1,308.3c0-.8,0-1.4,0-1.8,0-2.4.3-4.5,1-6.3.5-1.3,1.3-2.7,2.4-4,.8-1,2.3-2.4,4.4-4.3,2.1-1.9,3.5-3.4,4.2-4.5.6-1.1,1-2.3,1-3.7,0-2.4-.9-4.5-2.8-6.3-1.9-1.8-4.2-2.7-6.9-2.7s-4.8.8-6.6,2.5c-1.8,1.6-2.9,4.2-3.5,7.7l-6.3-.8c.6-4.7,2.3-8.2,5.1-10.7,2.8-2.5,6.5-3.7,11.2-3.7s8.8,1.3,11.7,4c2.9,2.7,4.4,5.9,4.4,9.7s-.5,4.2-1.5,6c-1,1.8-3,4.1-6,6.7-2,1.8-3.3,3.1-3.9,3.9-.6.8-1.1,1.8-1.4,2.9-.3,1.1-.5,2.9-.5,5.3h-5.9Zm-.4,12.3v-7h7v7h-7Z"/><path class="cls-8" d="m182.4,308.3c0-.8,0-1.4,0-1.8,0-2.4.3-4.5,1-6.3.5-1.3,1.3-2.7,2.4-4,.8-1,2.3-2.4,4.4-4.3,2.1-1.9,3.5-3.4,4.2-4.5.6-1.1,1-2.3,1-3.7,0-2.4-.9-4.5-2.8-6.3-1.9-1.8-4.2-2.7-6.9-2.7s-4.8.8-6.6,2.5c-1.8,1.6-2.9,4.2-3.5,7.7l-6.3-.8c.6-4.7,2.3-8.2,5.1-10.7,2.8-2.5,6.5-3.7,11.2-3.7s8.8,1.3,11.7,4c2.9,2.7,4.4,5.9,4.4,9.7s-.5,4.2-1.5,6c-1,1.8-3,4.1-6,6.7-2,1.8-3.3,3.1-3.9,3.9-.6.8-1.1,1.8-1.4,2.9-.3,1.1-.5,2.9-.5,5.3h-5.9Zm-.4,12.3v-7h7v7h-7Z"/><path class="cls-9" d="m60,198.4c.5-.4,1.1-.6,1.7-.6s.5,0,.8.1c.3,0,.6.2.9.4l1.2.6c.2,0,.3.2.5.2.1,0,.3,0,.5,0,.6,0,1-.1,1.3-.4.3-.3,1.1-1.3,2.4-3,.8-1.1,2.8-3.8,5.7-8.2,0-.2-.3-1.4-.8-3.7-.5-2.3-1-4.2-1.4-5.8-.4-1.6-.8-2.7-1.2-3.2-.3-.5-1-.8-1.9-.8s-.9.1-1.9.3c-.6.1-1.2.3-1.9.5l-.3-1.1,3.8-1.3c1-.3,1.9-.6,2.7-.8.8-.2,1.5-.3,2.1-.3,1,0,1.7.3,2.2.9.7.9,1.3,2.7,1.8,5.4l.7,3.9c2.1-3.1,3.6-5.4,4.8-6.6,1-1.2,2-2,2.9-2.6.9-.6,1.8-.9,2.6-.9s1.4.1,1.9.3c.9.4,1.3,1.2,1.3,2.3s-.2,1.4-.6,1.8-1,.6-1.7.6-.5,0-.7,0c-.2,0-.5-.1-.7-.3l-.9-.4c-.3-.1-.5-.2-.7-.3-.2,0-.4-.1-.5-.1-1,0-2.4,1.3-4.3,4-1.8,2.7-2.7,4.2-2.7,4.6s.2,1.5.6,3.3c.4,1.9.9,3.9,1.4,6,.5,2,.8,3.3,1.2,4.1.5,1.2,1.1,1.8,1.8,1.8s1.2-.3,1.9-1c.6-.7,1.6-1.9,2.9-3.7l1,.6c-1,1.8-2,3.3-3,4.5-2,2.4-3.9,3.6-5.7,3.6s-2-.5-2.7-1.6c-.4-.6-.8-1.7-1.1-3.1l-2.1-8.4-7,9.2c-1.4,1.6-2.4,2.7-3.2,3.2-.7.5-1.7.8-2.8.8s-2.4-.5-3-1.4c-.3-.5-.4-1-.4-1.7s.3-1.5.8-1.9Z"/><path class="cls-9" d="m82.4,320.6h-6.2v-39.2c-1.5,1.4-3.4,2.8-5.8,4.2-2.4,1.4-4.6,2.5-6.5,3.2v-5.9c3.4-1.6,6.4-3.6,9-5.9,2.6-2.3,4.4-4.5,5.5-6.7h4v50.3Z"/><path class="cls-16" d="m318.3,82v5.9h-33.1c0-1.5.2-2.9.7-4.3.8-2.3,2.2-4.5,4-6.7s4.5-4.7,8-7.6c5.4-4.5,9.1-8,11-10.6,1.9-2.6,2.9-5.1,2.9-7.4s-.9-4.5-2.6-6.2c-1.7-1.7-4-2.5-6.8-2.5s-5.3.9-7.1,2.7c-1.8,1.8-2.7,4.2-2.7,7.4l-6.3-.6c.4-4.7,2.1-8.3,4.9-10.8,2.8-2.5,6.6-3.7,11.4-3.7s8.6,1.3,11.4,4c2.8,2.7,4.2,6,4.2,9.9s-.4,4-1.2,5.9c-.8,1.9-2.2,4-4.1,6.1-1.9,2.1-5.1,5.1-9.5,8.8-3.7,3.1-6.1,5.2-7.1,6.3-1,1.1-1.9,2.2-2.6,3.3h24.6Z"/><path class="cls-18" d="m391.8,150.9c-7.3-1.3-19.6.6-24.4.4-.9-5.5-3.3-9-7.9-13.3,8-4.8,26.1-10.3,36.2-11.1.2,5.5,5.7,7.2,10.5,7.6,6.5.4,17.4,1.9,15.1-8.9,11.9-1.4,24.5,2.4,36.1,3.9-.3,5.4,0,9-2.5,14.6-6.3,1.5-11.2-.2-17.6,2.2,3.5,11.1,3.6,22.1,4.5,30.6,1.4,11.2,2.9,18.8.4,31.7-9.7,5.4-39.9,2.3-48.7-2.1.6-1.1,2.4-7.6,3.4-13.6,6.1-1.9,2-9.7.3-11.1-.5-11.6-2.7-19.8-5.3-30.9Zm41,34c2.6-.2-1.9-38.1-2.8-39.2-4.1-4-20.2-.8-22.8,3.9-.2,1.5,9.2,35.8,10.5,36.8,1.4,1,13.5.6,15-1.5Z"/><path class="cls-15" d="m414.8,227.7c-6.4,9.3-10.8,21.9-16,30.5-8.7-4.1-15.7-9.3-23.1-13.6,4.6-11,10.5-19.9,18.8-37.6,7.9,3.8,37.4,6.2,46.5,2.4-2.2,22.7-2.6,36-5.4,50.3-7.9,3.3-16.1,3.6-23.6-1.5-.2-8.1,4.6-23.6,3.4-30.2l-.6-.3Z"/><path class="cls-15" d="m441.8,333.2c-5.1,7.1-21.6,6.6-26.4.4,5.6-1.5,12.2-2.9,17.9-1.7h.3c0-2.8-.4-5.7-.3-8.5-1.2-.5-2.4-.9-3.7-1.4,2.3,9.9-11,5.1-16.4,8.6l.5,1.4c-3-3.5-6.1-4.4-10-7.6-.5,1.7,0,3.1,0,3.1,6.6,2.7,7.4,4.6,13.6,11,6.4,5.6,19.5,3.4,23.8-1.3h0c.6-1.3.9-2.6.8-4Z"/><path class="cls-13" d="m430,145.7c.9,1.2,5.4,39.1,2.8,39.2-1.5,2-13.7,2.4-15,1.5-1.3-1-10.8-35.3-10.5-36.8,2.6-4.7,18.7-7.9,22.8-3.9Z"/><path class="cls-11" d="m428.9,62.7c-1,8.7-24.3,8.8-37.5,3.5-4.2-1.6-7.7,19.6-6.4,23.9-.6-1.4-1.9-2.1-3.1-1.7-7.4-28.9,28-49.7,46.9-25.7Z"/><path class="cls-8" d="m427.4,88.3c.4,3.9-2.7,4.2-3,.3-.4-3.9,2.7-4.2,3-.3Z"/><path class="cls-7" d="m424.2,106.1h0c-3,10.8-23.8,3.4-17.7.8,4.8.8,13.3,1.2,17.6-.8Z"/><path class="cls-13" d="m400,127l.5-1c5.5,4.4,19.4,5.4,16.3-3.3,6.5,0,6,9.1,1.7,11.5-6.8.9-17.4,1.9-21.8-3.9l1.5-.5c.3-.2,1.6-2.5,1.8-2.8Z"/><path class="cls-8" d="m405.1,91.1c.5,4.5-3.3,4.9-3.7.4-.5-4.5,3.3-4.9,3.7-.4Z"/><path class="cls-13" d="m400.4,126c-.3.7-1.5,2.8-1.9,3.4-.2.4-1.5.7-1.9.9-1.7-3-1.4-7.9,2.5-9.4.5,1.8-.2,3.8,1.2,5.1Z"/><path class="cls-12" d="m389.5,176.3s0,0,0,0c0,0-.1.1-.2.2,0-.1,0-.2,0-.3Z"/><path class="cls-17" d="m388.8,177.5c-.9,1.3-2.2,2.8-3.7,3.9,1.1-1.4,2.8-2.8,3.7-3.9Z"/><path class="cls-10" d="m338.3,293.7c5.5.5,3.5,16.1,14.8,23.3,4.9,2.8,14.9,9,10,14.5t0,0c-6.1,6.4-10.3-3.4-13-8-3.6-5.4-12.9-7.4-15.7-14.3-2.5-4.5-1.1-14.1,3.9-15.4Z"/><path class="cls-15" d="m360.8,319.5c-4-3.1-5.2-2.6-11.4-9.5.8-1.5.5-4.1.9-7.5h0c-.6-.9-1.2-1.9-1.6-2.9-.2,1.8-.9,4.6-1.6,5.9-1.8-5.1-3.5-12.3-6.4-12.4v-.2c-.9.2-1.7.5-2.5.9,5.5.5,3.5,16.1,14.8,23.3,4.9,2.8,14.9,9,10,14.5,4.9-4,2.2-8.8-2.4-12Z"/><path class="cls-14" d="m463.8,131.8c-2.2-.6-3.3-.7-6.5-1.3-.3,5.1-.1,8.4-2.5,13.6h.2c-3.2,8.7-5.3,24.2-6.2,25.5-1.8,2.5-5.7,3.5-6.8,7.2h-.3c.4,3.8,1,7.5,1.4,11.4,5.5,2,12.2.3,12.7-6.3,0,0-.7-.2-.8-.3-2.1-.2-.3,2.1-2.2,2.4,2.7-3.7-.7-7.6.9-11h0c6.5-8.7,23.3-34.8,10-41.4Z"/><path class="cls-14" d="m433.2,323.5c0,2.8.3,5.7.3,8.5h-.3c-5.7-1.2-12.2.2-17.9,1.7,4.8,6.2,21.3,6.7,26.4-.4-.3-4.8-4.4-8.1-8.6-9.8Z"/><path class="cls-14" d="m425.6,328.5c3.7.5,4.7-3.5,4-6.4-4.4-1.5-9.3-2.9-12.2-6.7,7.7-23.8,11-32.7,14.9-54.2v-.3c-6.3,1.9-11.6,1.9-17.8-1.2-1.5,16.9-5.5,35.8-8,54.8h0c-6.9,14-.8,8.9,7.1,17.6l-.5-1.4c4-1.4,8.2-2.1,12.4-2.2Z"/><path class="cls-14" d="m417,125.7c-.2-1.5-.2-2-.3-3,0,0-.2,0-.2,0l-.2-1c9.5-2.5,15.7-12.1,16.6-22,4.2,1.6,5.2-17,.3-16.5,1-7-.5-15.1-4.3-20.4-1,8.7-24.3,8.8-37.5,3.5-4.2-1.6-7.7,19.6-6.4,23.9-2.7-4.6-6.2.4-5.3,4.2.7,3.8,3.4,11.2,8.1,9.6,1.5,5.1,6.9,11.2,10.9,13.3h0c.9,3.1,0,6.4,1.8,8.8,4,3.6,16.7,5.2,16.6-.3Zm8.6-40.3c1.9-.3,2.5,5.9.6,6-1.9.3-2.5-5.9-.6-6Zm-19.1,21.5c4.8.8,13.3,1.2,17.6-.8h0c-3,10.8-23.8,3.4-17.7.8Zm-3.7-19c2.4-.3,3,6.8.7,6.9-2.4.3-3.1-6.8-.7-6.9Z"/><path class="cls-14" d="m397.1,181.8c-1-1-5.1-3.3-7.4-5.6-8.7-8-14.6-16.8-24.7-23.9,2.1-1.1,2.5-.9,2.5-.9-.9-5.4-3-8.5-7.4-12.8-9.1,5.8-18.7,12.1-8.1,21.2,9.4,8.1,23.2,16.6,32.1,22.8h0c2,1.6,1.6,3.1,2,4.8-1.7-.9-1.7,0-1.1,1.5,3,7.4,7.2,5.9,11.7,4,6.1-1.9,2-9.7.3-11.1Z"/><path class="cls-14" d="m373.4,264.3c-6.8,10-11.1,28-13.9,36.5-5,8.7-5.9,6.1-9.2,1.7h0c-.5,3.5-.2,6-.9,7.5,7.8,9.4,13,7.2,16.6,16.2.4-4.8-2.5-10.3.4-14.1h0c3.5-7.7,17.6-29.7,20.1-38.4,1.1-3.9,7.9-14.7,9.7-16.9-6.1-3.2-11.3-6.7-16.1-9.7-1.3,3.4-4.6,14.1-6.6,17.1Z"/><path class="cls-14" d="m340.7,292.9v.2c2.9.1,4.6,7.3,6.4,12.4,3.2-5.3,1-15.6-6.4-12.6Z"/><path class="cls-4" d="m441,209.4c-2.2,22.7-2.6,36-5.4,50.3-7.9,3.3-16.1,3.6-23.6-1.5-.2-8.1,4.6-23.6,3.4-30.2"/><path class="cls-4" d="m422,219.8c-11.4,9.1-16.2,27.1-23.1,38.4-8.7-4.1-15.7-9.3-23.1-13.6,4.6-11,10.5-19.9,18.8-37.6"/><path class="cls-2" d="m457.3,130.5h0"/><path class="cls-2" d="m393.4,206.5c8.8,4.5,39.1,7.5,48.7,2.1"/><path class="cls-2" d="m434.1,140.2c6,7.6,6.7,25.4,7.3,32,1,13.1,3.8,22,.8,36.4"/><path class="cls-2" d="m396.8,192.9c-.9,6-2.8,12.4-3.4,13.6"/><path class="cls-2" d="m391.7,151.4c3.1,11,4.7,19,5.4,30.5"/><path class="cls-2" d="m421.3,125.7c11.9-1.4,24.5,2.4,36.1,3.9-.3,5.4,0,9-2.5,14.6-6.3,1.5-11.2-.2-17.6,2.2"/><path class="cls-2" d="m397.3,154.2c-5.4-7.3-24.2-1.9-29.9-2.8"/><path class="cls-2" d="m395.7,127c-10.1.8-28.1,6.3-36.1,11.1,4.5,4.3,7,7.7,7.9,13.3"/><path class="cls-2" d="m417,125.7c0,5.7-14,3.9-17.3-.6"/><path class="cls-2" d="m457.4,130.5c3.2.6,4.2.6,6.4,1.3"/><path class="cls-2" d="m457.4,139.8c-5.1,6.9-7.2,28.2-8.6,29.9-1.8,2.5-5.7,3.5-6.8,7.2"/><path class="cls-2" d="m463.8,131.8c6.7,2.1,5.3,11.7,2,21.4-2.7,8-8.8,14.1-12.5,20.7"/><path class="cls-2" d="m360.2,138.5c-9.1,5.8-18.8,12.1-8.2,21.2,9.4,8.1,23.2,16.6,32.1,22.8"/><path class="cls-2" d="m362.9,151c11.6,7.3,18.3,17.8,28,26.4"/><path class="cls-2" d="m367.4,151.4s-.4-.2-2.5.9"/><path class="cls-2" d="m416.7,122.1c0,1.4,0,1.8.3,3.6"/><path class="cls-4" d="m383.4,181.9c4.1,2.7,1.3,6,4.9,9"/><path class="cls-4" d="m389.5,176.3c6.7,5.4,9.6,4.5,10.8,14"/><path class="cls-4" d="m386.2,187.4c-4.2-2.2,1.5,6.4,2.7,6.9,4.3.5,10-1.2,11.4-4.8"/><path class="cls-2" d="m443.3,188.3c5.5,2.1,12.1.2,12.6-6.3,0,0-.7-.2-.8-.3-2.1-.2-.3,2.1-2.2,2.4,2.7-3.7-.7-7.6.9-11"/><path class="cls-2" d="m399.7,125.1c-.2-2.7-.6-5-1-7.9"/><path class="cls-2" d="m399.3,120.8c-4.2,1.4-4.4,6.8-2.4,9.8,4.6,5.3,14.8,4.5,21.5,3.5,4.4-2.5,4.7-11.6-1.9-11.5"/><path class="cls-1" d="m380,247.2c-1.3,3.4-4.6,14.1-6.6,17.1-6.8,10-11.1,28-13.9,36.5"/><path class="cls-1" d="m396.1,256.9c-1.8,2.2-8.6,12.9-9.7,16.9-2.5,8.8-16.6,30.8-20.1,38.5"/><path class="cls-1" d="m406.5,314.5c2.6-19,6.5-37.8,8-54.8"/><path class="cls-1" d="m432.3,261.2c-4,21.6-7.3,30.4-14.9,54.2"/><path class="cls-2" d="m433.5,76.8c.2,2.4-.6,9-.9,10.6,1.8,6,0,22.5-6.1,27.8-10.6,13.6-32.8,4.7-38.5-11"/><path class="cls-2" d="m429.9,81.8c-1.4-2.5-7.3-2.4-8.2-.9"/><path class="cls-2" d="m406.1,83.2c-2.3-1.9-7.7,0-8,1.7"/><path class="cls-2" d="m424.4,88.6c.3,3.9,3.4,3.6,3-.3-.3-3.9-3.4-3.6-3,.3Z"/><path class="cls-2" d="m401.4,91.5c.4,4.5,4.2,4.1,3.7-.4-.4-4.5-4.2-4.1-3.7.4Z"/><path class="cls-2" d="m423,99.7c-.2,3.2-7,4.1-11.9,3.3"/><path class="cls-2" d="m424.6,105.9c-4.5,2.4-13.1,1.8-18.1,1-6.1,2.6,14.7,10,17.7-.7"/><path class="cls-2" d="m433.5,76.8c-4.6-40.2-60.3-26.9-51.5,11.5"/><path class="cls-2" d="m385,90.1c-2.7-4.6-6.2.4-5.3,4.2.5,3.8,4.7,13.3,9,8.6"/><path class="cls-2" d="m433.1,83.2c4.9-.5,3.9,18.1-.3,16.5"/><path class="cls-2" d="m385,90.1c-1.3-4.3,2.2-25.5,6.4-23.9,13.2,5.2,36.5,5.2,37.5-3.5"/><path class="cls-1" d="m417.4,315.4c6.3,8.4,28.6,6.6,23.7,21.7"/><path class="cls-1" d="m363.1,331.5c4.9-5.5-5.1-11.7-10-14.5-11.6-7.3-9-23.2-15.2-23.3"/><path class="cls-1" d="m337.9,293.7c-4.6,2.2-6,10.8-3.5,15.4,2.8,6.9,12.2,8.9,15.7,14.3,2.6,4.7,6.9,14.5,13,8"/><path class="cls-1" d="m366.3,312.2c-4,5.3,3.3,14.4-3.1,19.3t0,0s0,0,0,0"/><path class="cls-1" d="m336.7,294.5c4.2-2.2,10.9-4.3,11.6,3.4"/><path class="cls-1" d="m365.9,326.4c-3.5-9.2-8.8-6.9-16.6-16.3-3.1-3.8-4.7-16.8-8.5-16.9"/><path class="cls-1" d="m359.5,300.8c-2.6,5.8-5.8,6.1-6.2,5.5-1.6-2.2-4.6-5.2-5-8.4"/><path class="cls-1" d="m406.6,314.5c-4.5,10.5-5,9,4.5,15,1.8,1.9,7.1,6.9,9.3,7.9,3.5,1.4,18.9,1.7,21.5-4.2"/><path class="cls-1" d="m441.1,337.2c-4.4,4.7-17.4,7-23.8,1.3-6.2-6.5-7-8.3-13.6-11,0,0-.5-1.4,0-3.1"/><path class="cls-2" d="m415.9,333.6c4.3-1.5,25.3-5.4,16,4.1"/><path class="cls-2" d="m413,330.7c5.5-3.5,18.9,1.3,16.5-8.7"/><path class="cls-2" d="m433.2,323.6c.1,2.8.3,5.5.4,8.3"/><path class="cls-1" d="m348.8,299.6c-.2,1.8-.9,4.6-1.6,5.9"/><path class="cls-2" d="m348.8,299.2c0,.1,0,.2,0,.4"/><path class="cls-2" d="m350.3,302.5c-.5,3.4-.2,6-.9,7.5"/><path class="cls-2" d="m417.8,186.4c1.4,1,13.5.6,15-1.5,2.6-.2-1.9-38.1-2.8-39.2-3.9-3.4-10.4-1.5-15.1-.4-2,.6-7.3,2-7.7,4.3-.2,1.5,9.2,35.8,10.5,36.8Z"/></svg>